<?xml version="1.0" standalone="no"?>
<!DOCTYPE svg PUBLIC "-//W3C//DTD SVG 20010904//EN"
 "http://www.w3.org/TR/2001/REC-SVG-20010904/DTD/svg10.dtd">
<svg version="1.0" xmlns="http://www.w3.org/2000/svg"
 width="1024.000000pt" height="1024.000000pt" viewBox="0 0 1024.000000 1024.000000"
 preserveAspectRatio="xMidYMid meet">

<g transform="translate(0.000000,1024.000000) scale(0.100000,-0.100000)"
fill="#000000" stroke="none">
<path d="M7777 8079 c-16 -21 -25 -44 -21 -51 4 -6 3 -8 -3 -5 -6 4 -41 -39
-81 -101 -211 -325 -380 -717 -512 -1192 -171 -617 -278 -1244 -346 -2030 -10
-114 -29 -197 -67 -286 -48 -111 -60 -175 -55 -280 3 -74 10 -100 36 -155 45
-93 109 -161 190 -201 64 -32 70 -33 192 -33 115 0 130 2 182 27 74 34 146
107 184 183 28 58 29 65 29 195 -1 132 -2 138 -42 255 -69 199 -95 397 -114
852 -27 655 36 1443 157 1968 61 263 158 564 248 764 30 69 55 126 53 127 -1
1 -15 -15 -30 -37z m-58 -135 c-41 -91 -132 -360 -179 -533 -74 -269 -135
-609 -164 -921 -39 -414 -41 -462 -40 -925 0 -650 23 -889 112 -1160 43 -132
45 -147 46 -255 1 -98 -3 -124 -22 -172 -62 -155 -216 -240 -407 -225 -224 17
-380 210 -362 449 5 58 17 106 50 190 57 146 64 180 82 382 70 771 173 1362
347 1980 128 459 292 840 498 1159 34 53 64 97 66 97 1 0 -11 -30 -27 -66z"/>
<path d="M7652 7846 c-12 -20 -15 -33 -8 -30 10 4 40 64 31 64 -2 0 -12 -15
-23 -34z"/>
<path d="M7604 7769 c-8 -17 -11 -28 -5 -25 6 4 11 2 11 -3 0 -6 -7 -11 -15
-11 -16 0 -151 -257 -141 -268 3 -3 6 0 6 8 0 10 3 10 15 0 10 -9 15 -9 15 -1
0 6 -4 11 -10 11 -14 0 -12 13 5 36 11 14 14 15 9 3 -3 -10 0 -20 6 -24 6 -4
11 -1 9 6 -3 27 1 40 12 33 8 -4 8 -1 1 12 -12 23 14 98 31 87 5 -3 7 -1 4 4
-4 6 2 28 12 49 18 36 19 37 23 14 4 -24 -12 -84 -33 -122 -5 -10 -5 -18 -1
-18 11 0 84 209 77 220 -3 5 1 11 7 13 8 3 6 6 -4 6 -10 1 -25 -13 -34 -30z
m18 -11 c-7 -7 -12 -8 -12 -2 0 14 12 26 19 19 2 -3 -1 -11 -7 -17z"/>
<path d="M7521 7469 c-13 -15 -27 -27 -32 -26 -4 1 -7 0 -6 -3 0 -3 -5 -15
-11 -27 -9 -17 -9 -22 2 -26 19 -8 28 3 16 18 -8 9 -6 14 5 19 8 3 15 1 15 -4
0 -6 5 -10 11 -10 6 0 9 9 6 20 -3 11 -2 18 3 15 6 -4 23 46 17 51 -1 1 -13
-11 -26 -27z"/>
<path d="M7427 7413 c-48 -113 -87 -209 -87 -217 0 -6 7 -1 15 10 11 13 15 14
13 4 -3 -19 33 -80 44 -74 4 3 1 12 -7 20 -8 9 -13 20 -10 25 4 5 -2 9 -12 9
-15 0 -16 2 -3 10 21 14 28 12 33 -7 2 -10 3 -6 1 8 -2 17 2 26 12 26 8 0 13
-6 10 -14 -3 -7 1 -13 10 -13 13 0 15 -8 10 -37 -5 -37 -5 -37 6 -9 8 22 8 34
-1 49 -7 10 -10 22 -6 25 3 4 10 1 14 -6 7 -11 19 30 46 158 3 14 -1 9 -8 -10
-8 -19 -18 -34 -23 -33 -5 2 -12 -9 -16 -22 -6 -25 6 -36 15 -12 4 9 6 9 6 -1
1 -7 -10 -17 -24 -22 -28 -11 -35 -22 -7 -14 14 5 14 4 2 -4 -8 -6 -17 -9 -21
-6 -4 2 -10 -2 -13 -8 -2 -7 -3 -2 -1 12 2 14 4 29 4 33 1 5 5 6 10 3 5 -3 11
0 14 7 5 14 -31 42 -41 32 -4 -3 0 -10 8 -15 12 -8 10 -10 -8 -10 -21 0 -22 2
-10 23 7 12 11 25 10 29 -1 4 5 5 13 2 8 -4 15 -14 15 -23 0 -12 2 -13 9 -3 4
8 12 13 17 12 16 -3 15 17 -1 24 -9 3 -13 2 -10 -4 3 -6 2 -10 -3 -10 -6 0
-13 7 -16 16 -8 21 -8 20 8 37 8 7 11 19 7 26 -5 7 -14 -2 -24 -26z m-17 -137
c-5 -13 -6 -27 -3 -30 3 -3 0 -13 -7 -21 -11 -14 -15 -14 -21 -2 -10 18 11 77
28 77 9 0 10 -7 3 -24z"/>
<path d="M7430 7165 c0 -8 2 -15 4 -15 2 0 6 7 10 15 3 8 1 15 -4 15 -6 0 -10
-7 -10 -15z"/>
<path d="M7318 7147 c-8 -20 11 -69 23 -61 10 6 12 -10 3 -19 -4 -4 -15 2 -24
13 -15 17 -19 18 -24 5 -7 -20 10 -65 25 -65 8 0 8 4 -1 15 -11 13 -10 14 3
10 9 -4 21 2 29 14 8 12 18 18 21 14 4 -3 7 -2 7 4 0 6 -11 14 -24 17 -19 5
-25 14 -28 39 -2 24 -5 28 -10 14z"/>
<path d="M7340 7130 c0 -13 5 -18 14 -14 8 3 12 12 9 20 -8 21 -23 17 -23 -6z"/>
<path d="M7420 7116 c0 -10 5 -14 10 -11 6 3 10 -4 9 -17 0 -13 -3 -17 -6 -10
-2 6 -9 10 -14 6 -8 -5 -13 9 -10 28 0 4 -7 4 -16 1 -11 -4 -13 -8 -5 -11 7
-2 12 -10 12 -18 0 -8 7 -14 16 -14 9 0 14 -5 12 -12 -4 -11 -18 -15 -65 -20
-13 -1 -23 -6 -23 -10 0 -4 20 -6 45 -3 25 2 45 0 45 -5 0 -14 -32 -21 -46 -9
-8 7 -14 7 -14 1 0 -15 28 -35 40 -27 5 3 10 -2 10 -12 0 -10 -9 -24 -19 -30
-11 -7 -22 -26 -26 -43 -6 -28 -10 -31 -33 -26 -20 5 -23 4 -12 -4 17 -11 10
-13 -14 -4 -9 3 -13 10 -10 15 3 5 -2 6 -11 3 -9 -4 -15 -2 -13 4 2 6 -6 18
-17 27 -11 9 -15 14 -8 11 6 -4 19 4 27 16 9 12 19 19 22 15 4 -4 0 -15 -10
-26 -16 -17 -16 -19 1 -25 10 -3 28 -10 41 -16 20 -9 21 -8 12 10 -14 25 -13
27 10 33 11 3 20 10 20 17 0 6 -5 8 -11 4 -8 -4 -8 0 0 15 12 21 -2 31 -14 11
-4 -6 -10 -8 -15 -5 -5 3 -11 1 -14 -4 -7 -11 -46 -3 -46 10 0 4 7 12 16 17
15 8 15 12 2 31 -14 19 -16 15 -47 -81 -17 -55 -30 -103 -27 -105 2 -3 7 5 11
18 6 17 9 19 16 8 6 -10 9 -11 9 -1 0 6 5 12 11 12 5 0 7 -4 4 -10 -3 -6 1 -7
9 -4 9 3 16 2 16 -3 0 -16 -13 -23 -24 -14 -17 14 -24 13 -44 -7 -25 -25 -33
-50 -19 -56 9 -3 9 -5 0 -5 -7 -1 -13 -10 -13 -20 0 -11 -4 -23 -10 -26 -5 -3
-10 -14 -9 -23 0 -14 2 -13 9 3 8 18 9 19 9 1 1 -13 6 -16 19 -11 9 4 31 12
47 17 17 6 36 15 43 21 8 6 12 5 14 -4 8 -71 4 -78 -32 -59 -28 15 -34 -17
-10 -54 13 -20 20 -25 20 -14 0 11 6 15 23 11 20 -4 20 -3 4 7 -10 6 -25 9
-33 6 -8 -3 -14 1 -14 10 0 11 6 15 20 11 27 -7 39 12 34 58 -3 35 -1 41 16
42 11 1 20 -3 20 -8 0 -6 -4 -7 -10 -4 -5 3 -10 -1 -10 -10 0 -9 4 -14 8 -11
5 3 9 -1 9 -9 0 -8 -4 -15 -9 -15 -5 0 -4 -9 2 -20 6 -11 8 -25 5 -30 -3 -6
-2 -10 3 -10 9 0 35 150 27 158 -3 3 -5 -2 -5 -11 0 -11 -9 -15 -30 -15 -16 1
-27 5 -24 10 3 4 0 8 -5 8 -6 0 -11 -7 -11 -15 0 -8 -7 -15 -16 -15 -8 0 -12
-5 -8 -11 4 -7 -1 -10 -12 -7 -25 4 -23 22 4 26 12 2 22 7 22 12 0 5 -7 7 -15
4 -10 -4 -15 0 -15 11 0 12 -6 16 -20 12 -11 -3 -18 0 -17 7 2 13 18 26 32 26
6 0 3 -5 -5 -11 -12 -8 -9 -9 9 -4 19 6 23 4 18 -9 -4 -9 -1 -16 4 -16 6 0 9
9 6 20 -7 27 8 34 35 16 12 -9 18 -16 12 -16 -5 0 -15 5 -22 12 -9 9 -12 7
-12 -9 0 -17 5 -20 22 -15 12 3 19 1 15 -5 -10 -15 17 -11 32 5 12 12 11 13
-8 7 -22 -7 -22 -7 -6 22 10 15 11 20 3 11 -9 -11 -19 -14 -28 -8 -8 5 -12 10
-10 12 3 2 14 8 25 14 11 6 22 22 23 35 2 13 7 28 11 32 8 8 4 -66 -4 -90 -2
-7 0 -13 5 -13 6 0 10 10 10 23 1 12 11 77 23 144 13 67 21 120 18 118 -2 -3
-10 0 -18 6 -10 9 -13 8 -13 -5z m-80 -166 c0 -5 -2 -10 -4 -10 -3 0 -8 5 -11
10 -3 6 -1 10 4 10 6 0 11 -4 11 -10z m-10 -31 c0 -5 -4 -9 -10 -9 -5 0 -10 7
-10 16 0 8 5 12 10 9 6 -3 10 -10 10 -16z m-71 -155 c-9 -12 -10 -17 -1 -23 7
-4 1 -11 -18 -18 -25 -9 -28 -9 -27 8 1 14 4 16 16 6 12 -10 13 -9 4 8 -11 22
-7 45 9 45 6 0 7 -5 2 -13 -5 -7 -2 -5 6 4 18 21 27 4 9 -17z"/>
<path d="M7316 6994 c-15 -11 -14 -12 8 -10 14 0 28 6 30 12 6 14 -17 14 -38
-2z"/>
<path d="M7380 6970 c0 -6 7 -10 15 -10 8 0 15 2 15 4 0 2 -7 6 -15 10 -8 3
-15 1 -15 -4z"/>
<path d="M7290 6711 c0 -6 4 -12 8 -15 5 -3 9 1 9 9 0 8 -4 15 -9 15 -4 0 -8
-4 -8 -9z"/>
<path d="M7230 6696 c0 -2 7 -6 15 -10 8 -3 15 -1 15 4 0 6 -7 10 -15 10 -8 0
-15 -2 -15 -4z"/>
<path d="M7178 6668 c-20 -25 -24 -53 -6 -42 7 4 8 3 4 -4 -4 -7 -3 -12 2 -12
15 0 22 28 9 33 -7 2 -10 6 -7 9 3 2 21 -5 40 -15 33 -18 33 -18 7 -14 -26 4
-27 4 -10 -13 11 -10 22 -14 29 -9 19 15 64 -57 49 -81 -4 -6 -11 -7 -17 -4
-7 4 -6 9 2 14 7 4 9 13 5 19 -5 9 -10 9 -21 0 -8 -6 -14 -8 -14 -3 0 5 -5 2
-10 -7 -6 -11 -18 -15 -35 -11 -20 3 -25 0 -25 -16 0 -12 -5 -24 -12 -28 -8
-5 -9 -2 -5 10 4 10 1 19 -8 22 -8 4 -15 10 -15 15 0 4 7 6 15 3 8 -4 15 -1
15 6 0 6 -4 9 -9 5 -5 -3 -11 3 -13 12 -2 10 -9 -3 -16 -29 -11 -44 -10 -50 8
-68 11 -11 22 -15 25 -9 4 5 11 7 16 4 5 -3 6 1 3 9 -3 8 -1 23 5 34 10 19 13
20 41 6 34 -18 38 -24 12 -19 -28 5 -46 -9 -30 -23 7 -5 17 -10 23 -10 5 0 11
-6 14 -13 2 -7 -1 -9 -8 -5 -6 4 -11 1 -11 -8 0 -30 19 -25 26 6 4 18 7 36 6
41 -1 4 3 7 8 7 6 0 10 -4 10 -8 0 -5 7 -9 16 -9 10 0 6 8 -13 24 -16 15 -21
22 -11 19 10 -3 20 -1 23 4 4 6 14 6 26 -1 35 -18 50 -4 48 43 -1 24 2 52 6
63 5 16 5 17 -4 5 -6 -8 -11 -12 -11 -7 0 4 -16 1 -35 -7 -33 -14 -35 -14 -54
10 -10 13 -24 24 -30 24 -6 0 -11 5 -11 11 0 5 5 7 10 4 6 -3 10 -1 10 4 0 6
-6 11 -14 11 -8 0 -17 6 -20 13 -3 6 -4 5 -3 -5 1 -9 -2 -16 -8 -15 -5 1 -9 8
-7 15 4 17 0 15 -20 -10z m177 -84 c0 -14 -9 -32 -20 -41 -19 -15 -19 -15 4
-8 16 5 21 4 17 -4 -12 -18 -43 -12 -49 9 -3 11 -1 23 4 26 5 3 7 10 4 15 -4
5 4 13 17 18 13 6 23 10 23 10 1 1 1 -11 0 -25z m-87 -54 c-12 -19 -28 -27
-28 -14 0 6 30 33 38 34 1 0 -3 -9 -10 -20z m-104 -69 c-7 -8 -30 25 -26 37 3
9 8 6 16 -10 7 -12 11 -25 10 -27z m91 9 c3 -5 1 -10 -4 -10 -6 0 -11 5 -11
10 0 6 2 10 4 10 3 0 8 -4 11 -10z"/>
<path d="M7151 6592 c0 -10 3 -12 6 -4 7 18 23 4 17 -16 -5 -16 -5 -16 6 1 6
9 18 17 27 17 26 0 8 11 -26 15 -24 3 -31 0 -30 -13z"/>
<path d="M7230 6580 c-12 -8 -11 -10 8 -10 12 0 22 5 22 10 0 13 -11 13 -30 0z"/>
<path d="M7190 6569 c0 -5 5 -7 10 -4 6 3 10 8 10 11 0 2 -4 4 -10 4 -5 0 -10
-5 -10 -11z"/>
<path d="M7350 6469 c0 -11 -5 -17 -10 -14 -6 4 -7 12 -4 18 4 7 3 8 -1 4 -5
-4 -10 -15 -11 -23 -1 -9 0 -13 3 -10 3 3 11 -2 18 -10 10 -14 12 -11 13 20 1
20 -1 36 -3 36 -3 0 -5 -9 -5 -21z"/>
<path d="M7111 6437 c-17 -44 -63 -262 -65 -303 0 -23 -4 -40 -7 -38 -9 5 -42
-173 -35 -191 3 -9 2 -13 -4 -10 -6 4 -10 -6 -9 -22 0 -23 2 -25 8 -9 5 14 10
16 15 8 4 -7 4 -16 1 -22 -3 -5 3 -10 14 -10 23 0 28 19 10 37 -7 7 -7 13 0
17 5 4 8 14 5 24 -5 14 -4 15 5 2 6 -8 8 -24 4 -35 -5 -17 -4 -18 9 -8 8 7 18
10 21 6 4 -3 7 0 7 7 0 9 5 7 15 -6 14 -18 14 -18 9 3 -6 24 -34 40 -34 20 0
-7 -5 -4 -11 5 -7 13 -7 23 1 35 10 16 10 15 5 -4 -5 -18 -2 -20 15 -16 12 3
20 0 20 -7 0 -10 3 -10 15 0 16 13 10 34 -7 24 -7 -5 -7 -1 0 12 9 15 7 21
-10 30 -21 11 -20 12 12 29 33 17 34 17 51 -6 17 -21 24 -20 20 4 -1 5 3 6 8
3 5 -4 12 0 15 6 3 7 3 2 0 -12 -10 -39 -10 -42 1 -46 6 -2 10 12 9 34 -1 65
-2 67 -22 49 -11 -10 -22 -13 -31 -7 -8 4 -21 6 -29 2 -10 -3 -13 0 -10 9 5
16 28 19 46 6 7 -6 16 -7 20 -3 4 4 -1 12 -11 17 -9 6 -17 15 -17 21 0 7 5 6
15 -2 12 -10 15 -10 15 4 0 9 8 16 18 17 13 0 12 2 -5 9 -28 12 -30 30 -3 23
11 -3 20 -8 21 -12 0 -3 2 -14 4 -23 2 -11 -2 -15 -11 -11 -9 3 -14 -1 -14
-12 0 -11 5 -15 15 -11 8 3 15 1 15 -4 0 -6 5 -10 11 -10 6 0 9 7 6 15 -4 8
-2 17 3 20 5 3 10 -3 13 -12 2 -10 4 -3 4 15 0 19 6 38 14 43 8 5 9 9 3 9 -6
0 -19 -10 -28 -22 -12 -16 -16 -18 -12 -5 3 11 0 17 -9 17 -8 0 -15 5 -15 10
0 6 -6 10 -12 9 -30 -4 -43 2 -23 11 13 5 28 3 42 -6 29 -18 39 -18 23 1 -9
10 -9 15 -1 15 6 0 11 -4 11 -10 0 -5 6 -10 14 -10 9 0 12 7 9 19 -3 11 -12
18 -21 16 -10 -2 -17 -4 -17 -5 0 -1 -16 -3 -35 -4 -19 -2 -43 -6 -53 -11 -30
-13 -31 2 -1 21 19 13 29 15 31 7 3 -7 11 -9 19 -6 13 5 13 7 3 14 -16 10 -11
16 16 21 11 1 23 8 27 13 5 6 8 3 8 -7 0 -9 -8 -19 -17 -21 -14 -4 -12 -5 5
-6 12 0 22 4 22 9 0 16 37 11 44 -6 9 -22 8 -24 -10 -24 -8 0 -12 -5 -9 -10 4
-6 10 -8 15 -5 5 3 11 -3 13 -12 3 -10 5 5 6 33 l1 52 -32 -2 c-21 0 -32 3
-31 11 2 7 -4 10 -12 7 -19 -8 -30 38 -16 64 14 27 14 42 0 22 -9 -13 -10 -12
-5 3 3 9 2 17 -3 17 -16 0 -21 -13 -9 -27 8 -10 8 -17 0 -25 -9 -9 -12 -7 -13
8 0 15 -3 13 -13 -10 -10 -21 -14 -25 -19 -13 -3 9 -1 18 6 21 7 2 1 3 -13 2
-23 -3 -80 18 -80 30 0 3 5 2 11 -2 8 -4 9 3 4 24 -4 19 -2 33 6 38 8 5 10 2
6 -8 -4 -11 1 -18 14 -21 10 -3 19 -1 19 4 0 5 5 9 11 9 5 0 7 -4 4 -10 -3 -5
0 -10 8 -10 20 0 41 50 27 64 -8 8 -9 6 -4 -9 7 -18 6 -19 -12 -5 -17 14 -18
13 -7 -1 16 -20 6 -31 -18 -19 -12 7 -19 6 -22 -3 -3 -7 -6 -5 -6 6 -1 9 -5
17 -11 17 -5 0 -7 7 -4 15 4 8 3 15 0 15 -4 0 -10 -11 -15 -23z m-11 -141
c-11 -11 -1 -38 11 -30 16 9 10 -5 -10 -25 -19 -19 -19 -18 -17 18 5 77 6 77
16 61 5 -9 5 -19 0 -24z m40 18 c0 -2 -7 -4 -15 -4 -8 0 -15 4 -15 10 0 5 7 7
15 4 8 -4 15 -8 15 -10z m36 -29 c3 -14 8 -25 11 -25 11 0 31 28 25 35 -4 5
-1 5 6 1 7 -4 10 -11 7 -16 -3 -4 2 -11 11 -14 16 -6 11 -26 -7 -26 -6 0 -8 4
-4 9 3 5 1 12 -5 16 -6 3 -10 -3 -10 -16 0 -17 -4 -20 -21 -16 -15 4 -19 2
-15 -9 3 -8 2 -13 -3 -10 -14 9 -42 -30 -35 -48 8 -20 -41 -73 -51 -56 -3 6
-1 10 6 10 7 0 3 9 -9 20 -24 23 -27 38 -11 60 9 13 10 12 5 -2 -4 -13 -1 -16
12 -12 14 5 14 3 -2 -10 -18 -14 -17 -15 8 -22 15 -3 30 -4 33 0 4 3 -1 6 -11
6 -9 0 -14 5 -11 10 4 6 1 18 -7 27 -11 15 -11 16 5 10 11 -4 17 -1 17 9 0 8
-4 12 -10 9 -19 -12 -10 7 12 25 19 15 20 20 9 34 -15 18 -1 22 17 4 8 -8 7
-20 -4 -46 -8 -19 -12 -37 -9 -40 2 -3 8 4 12 14 3 10 12 22 19 26 13 9 7 48
-7 48 -5 0 -9 5 -9 10 0 21 20 9 26 -15z m14 -170 c1 -12 -29 -15 -36 -3 -7
11 -34 -23 -39 -52 -2 -11 1 -20 6 -20 6 0 7 -5 3 -11 -4 -8 -9 -7 -15 2 -4 7
-5 17 -3 21 3 4 0 8 -6 8 -6 0 -8 5 -5 10 3 6 -2 10 -11 10 -14 0 -15 -3 -6
-12 7 -7 12 -17 12 -23 0 -12 -46 -13 -57 0 -5 4 -2 4 6 0 11 -6 13 -4 8 9 -4
9 -3 14 2 11 5 -3 12 4 16 15 5 15 10 18 24 11 13 -7 21 -4 34 13 17 22 67 31
67 11z m-120 -129 c0 5 -5 15 -12 22 -7 7 -8 12 -2 12 6 0 16 -11 22 -24 9
-19 8 -24 -3 -22 -8 1 -18 5 -21 9 -17 17 -25 5 -10 -12 17 -19 17 -19 -2 -15
-18 5 -20 14 -13 58 0 4 10 -2 21 -15 10 -13 19 -19 20 -13z"/>
<path d="M7276 6424 c-11 -8 -16 -14 -10 -14 13 0 39 18 34 24 -3 2 -14 -2
-24 -10z"/>
<path d="M7325 6410 c3 -5 8 -10 11 -10 2 0 4 5 4 10 0 6 -5 10 -11 10 -5 0
-7 -4 -4 -10z"/>
<path d="M7207 6386 c-21 -31 -6 -43 18 -16 13 14 15 24 8 31 -7 7 -15 2 -26
-15z"/>
<path d="M7285 6400 c-3 -5 -11 -7 -19 -4 -7 3 -13 -2 -13 -11 0 -8 6 -15 14
-15 7 0 13 5 13 11 0 5 4 8 8 5 5 -3 9 1 9 9 0 17 -3 19 -12 5z"/>
<path d="M7341 6345 c-2 -27 -5 -43 -8 -35 -3 8 -15 23 -27 33 -19 15 -19 16
-2 10 13 -4 17 -3 12 5 -4 7 -2 12 5 12 7 0 10 2 7 5 -9 9 -60 -14 -54 -24 4
-5 1 -11 -6 -13 -16 -6 0 -28 20 -28 14 0 15 2 2 10 -18 11 -8 23 14 14 9 -3
17 -15 17 -25 2 -31 4 -37 11 -44 9 -9 21 75 15 106 -2 13 -5 2 -6 -26z"/>
<path d="M7134 6360 c0 -11 6 -22 12 -24 7 -3 10 3 7 15 -7 26 -19 32 -19 9z"/>
<path d="M7166 6357 c3 -10 9 -15 12 -12 3 3 0 11 -7 18 -10 9 -11 8 -5 -6z"/>
<path d="M7250 6290 c0 -5 7 -10 16 -10 8 0 12 5 9 10 -3 6 -10 10 -16 10 -5
0 -9 -4 -9 -10z"/>
<path d="M7307 6137 c-4 -10 -2 -17 3 -17 6 0 10 -7 10 -15 0 -8 -8 -15 -17
-15 -17 -1 -17 -1 0 -11 18 -10 22 -60 8 -108 -6 -22 -8 -23 -23 -8 -20 21
-29 22 -22 3 3 -8 14 -16 25 -19 14 -4 19 -14 19 -36 0 -17 -4 -31 -10 -31 -5
0 -10 -4 -10 -8 0 -5 7 -9 15 -9 10 0 15 11 16 36 1 20 3 75 5 123 3 90 -6
148 -19 115z"/>
<path d="M7257 6053 c-10 -3 -17 -12 -16 -21 1 -9 -2 -25 -6 -36 -5 -12 -3
-21 6 -27 8 -5 10 -9 5 -9 -6 0 -5 -5 2 -12 15 -15 15 -28 1 -28 -5 0 -8 4 -4
9 3 5 1 12 -5 16 -14 9 -38 -17 -33 -35 3 -10 -1 -8 -11 4 -17 21 -20 14 -7
-19 5 -11 14 -20 21 -20 7 0 15 -6 18 -12 7 -22 -22 -14 -38 10 -22 34 -22 55
1 70 13 10 17 17 10 22 -6 3 -9 10 -6 14 2 5 -6 7 -20 6 -13 -2 -26 3 -29 12
-3 8 -10 11 -16 8 -6 -4 -7 -12 -3 -18 4 -7 8 -18 8 -24 0 -7 3 -13 8 -13 4 0
12 0 18 0 5 0 8 4 5 8 -3 5 1 9 9 9 10 0 10 -5 -3 -23 -9 -12 -19 -20 -21 -18
-11 11 -30 -21 -25 -42 7 -26 -5 -31 -24 -12 -9 9 -12 7 -12 -11 0 -13 4 -19
10 -16 7 4 9 -3 6 -21 -3 -15 -11 -31 -18 -36 -7 -4 -10 -8 -5 -9 4 -1 12 -3
17 -4 6 -1 13 -3 16 -4 4 0 1 -8 -6 -16 -7 -8 -11 -15 -9 -16 39 -7 49 -7 49
1 0 6 11 10 25 10 29 0 31 7 8 35 -15 20 -15 20 -10 -3 4 -15 1 -22 -6 -19 -7
2 -12 10 -12 17 0 7 -8 16 -17 19 -15 5 -14 8 7 17 20 10 22 9 17 -4 -3 -10
-1 -13 6 -8 7 4 15 1 18 -8 3 -9 11 -16 18 -16 6 0 12 -9 12 -19 0 -11 -5 -17
-11 -14 -5 4 -7 2 -2 -2 13 -15 49 -17 40 -3 -11 19 -13 39 -2 32 5 -3 8 0 7
7 -2 6 3 14 10 16 18 7 15 -25 -5 -35 -15 -9 -14 -11 3 -20 13 -7 26 -7 35 -1
11 7 11 9 -3 9 -10 0 -18 5 -18 11 0 5 5 7 12 3 7 -5 9 -2 5 9 -3 9 -2 30 3
47 7 23 6 30 -3 27 -7 -2 -11 -14 -9 -25 2 -16 -1 -20 -11 -16 -8 3 -18 1 -22
-5 -10 -17 -38 -13 -32 4 4 8 1 17 -5 21 -7 5 -8 2 -3 -6 5 -9 4 -11 -4 -6
-13 9 -5 27 12 25 31 -4 58 2 52 11 -4 6 -11 7 -17 4 -7 -4 -8 -2 -4 4 4 7 2
12 -5 12 -7 0 -9 3 -6 7 4 3 2 12 -4 20 -7 8 -8 13 -1 13 5 0 13 -7 16 -16 3
-8 10 -12 16 -9 5 3 10 -2 11 -12 0 -16 1 -16 8 2 5 11 6 26 3 34 -3 9 -1 12
6 7 8 -5 10 -2 6 8 -3 9 -10 14 -14 11 -11 -7 -18 5 -25 44 -5 29 -4 31 14 21
26 -13 28 -13 35 6 5 13 4 14 -7 6 -10 -9 -17 -8 -25 0 -15 15 -16 32 -2 23 6
-3 10 1 10 9 0 9 -1 15 -2 15 -2 -1 -11 -3 -21 -6z m-99 -157 c-2 -8 6 -22 17
-30 20 -15 20 -15 -1 -10 -27 7 -52 54 -28 54 8 0 14 -6 12 -14z m-8 -50 c0
-2 -8 -10 -17 -17 -16 -13 -17 -12 -4 4 13 16 21 21 21 13z"/>
<path d="M7290 6040 c0 -5 5 -10 10 -10 6 0 10 5 10 10 0 6 -4 10 -10 10 -5 0
-10 -4 -10 -10z"/>
<path d="M7052 5839 c-8 -12 -19 -18 -28 -15 -9 3 -12 1 -9 -4 3 -6 2 -10 -4
-10 -5 0 -11 6 -14 13 -7 19 -14 5 -20 -38 -4 -29 -1 -43 11 -53 15 -12 15
-13 -4 -9 -19 4 -22 -2 -33 -77 -7 -44 -14 -103 -16 -131 -2 -27 -6 -57 -10
-66 -3 -8 -7 -42 -8 -74 -2 -52 0 -60 18 -63 16 -2 17 -1 6 7 -17 11 -24 71
-9 71 5 0 12 -9 15 -20 3 -11 9 -18 13 -15 4 3 6 -11 3 -30 -3 -20 0 -35 5
-35 6 0 8 9 5 20 -3 12 0 20 7 20 8 0 11 -9 8 -25 -3 -15 -1 -25 7 -25 7 0 11
12 10 30 -1 19 3 30 11 30 10 0 11 -6 4 -25 -6 -15 -6 -26 0 -30 10 -6 14 1
11 18 -1 5 3 6 9 2 7 -4 9 2 4 19 -4 18 -2 26 7 26 7 0 10 -3 6 -6 -3 -3 3
-15 13 -27 23 -24 39 -16 19 10 -9 11 -10 14 -1 9 8 -4 12 -1 12 9 0 11 -5 15
-15 11 -9 -3 -15 0 -15 10 0 9 5 12 13 8 8 -5 8 -2 -2 9 -16 20 -2 22 24 3 10
-7 28 -11 39 -9 18 3 18 2 -2 -7 l-23 -10 21 -31 c12 -16 19 -33 16 -36 -3 -4
-6 -1 -6 5 0 7 -7 12 -15 12 -9 0 -12 6 -9 15 4 8 1 15 -5 15 -14 0 -14 -27 0
-36 8 -4 7 -9 -2 -15 -8 -5 -23 -2 -36 6 -26 17 -36 6 -27 -30 4 -16 2 -25 -6
-25 -6 0 -8 5 -5 10 11 17 -5 32 -20 20 -10 -8 -19 -8 -34 -1 -32 17 -34 13
-6 -14 26 -27 35 -46 13 -27 -7 6 -28 14 -47 19 -19 5 -36 14 -39 21 -2 7 0
12 5 11 20 -4 34 2 28 11 -4 6 -11 8 -16 5 -5 -4 -9 -1 -9 4 0 6 -4 11 -10 11
-5 0 -10 -16 -10 -35 0 -35 6 -39 43 -36 9 1 17 -3 17 -9 0 -6 -5 -8 -12 -4
-7 5 -8 3 -4 -5 5 -7 18 -17 30 -22 21 -9 21 -10 -1 -5 -24 4 -26 2 -14 -28 7
-17 8 -17 24 -2 14 14 17 15 17 3 0 -8 -8 -18 -17 -21 -12 -5 -14 -9 -5 -18
17 -17 15 -41 -3 -34 -8 3 -15 1 -15 -4 0 -6 10 -10 22 -10 15 0 19 -3 12 -10
-16 -16 -49 2 -50 26 0 14 4 20 12 17 9 -3 11 2 7 16 -5 20 -7 20 -18 5 -8
-12 -14 -14 -19 -5 -8 13 -26 6 -26 -11 0 -5 6 -8 14 -5 20 8 28 -19 10 -34
-21 -17 -37 -49 -25 -49 5 0 12 8 14 18 4 13 5 11 6 -5 0 -13 6 -23 12 -23 5
0 7 6 3 13 -4 6 7 -1 25 -18 30 -28 30 -30 12 -40 -13 -7 -17 -15 -12 -23 5
-8 11 -13 15 -13 19 3 24 -1 22 -16 0 -10 6 -18 14 -18 8 0 15 -6 14 -12 -3
-39 -5 -44 -14 -38 -8 5 -7 11 1 21 17 20 5 28 -14 9 -9 -8 -18 -11 -21 -6 -4
5 -2 11 4 13 5 1 7 13 4 25 -4 13 -11 20 -20 16 -8 -3 -14 0 -14 7 0 6 -5 8
-12 4 -7 -5 -8 -3 -3 6 5 8 3 11 -6 8 -18 -6 -24 -36 -7 -35 31 1 48 -4 48
-14 0 -5 -4 -8 -9 -4 -5 3 -12 1 -16 -5 -3 -5 -2 -10 4 -10 5 0 8 -14 6 -31
-4 -31 -4 -31 15 -14 19 17 20 17 29 -6 11 -31 5 -38 -14 -13 -9 12 -14 14
-15 5 0 -7 -6 -11 -13 -8 -7 3 -19 -4 -25 -14 -7 -11 -8 -19 -2 -19 5 0 18
-10 30 -22 12 -13 20 -17 20 -9 0 9 8 11 28 7 15 -4 36 -7 47 -7 18 0 19 -1 2
-10 -9 -6 -21 -8 -26 -5 -13 8 -42 -4 -36 -15 3 -4 12 -6 20 -3 10 4 12 0 8
-16 -4 -14 -8 -18 -13 -10 -5 8 -9 4 -13 -11 -5 -17 -9 -20 -19 -11 -19 15
-27 15 -52 -1 -12 -9 -27 -12 -32 -9 -13 10 -16 32 -4 32 6 0 10 -7 10 -15 0
-13 3 -13 20 -3 11 7 20 19 20 26 0 7 5 10 10 7 6 -4 7 -12 4 -18 -4 -7 -1 -6
7 1 12 11 10 16 -10 33 -19 16 -20 19 -6 19 14 0 15 3 5 15 -13 16 -35 21 -26
6 8 -12 -29 -20 -45 -10 -10 6 -8 9 9 9 12 0 22 6 22 14 0 22 -18 29 -23 9 -3
-10 -3 6 0 36 3 31 2 51 -4 48 -5 -3 -10 7 -11 23 -1 16 3 32 9 36 8 4 7 9 -2
16 -11 7 -11 9 1 7 39 -4 43 1 20 26 -14 14 -18 25 -11 25 7 0 22 -10 33 -22
11 -13 16 -17 13 -9 -6 10 -2 12 16 7 13 -3 18 -3 12 0 -7 3 -13 11 -13 17 0
7 -14 13 -32 14 -17 1 -35 7 -38 13 -8 13 -14 -33 -31 -233 -9 -107 -9 -148
-1 -162 11 -19 11 -19 12 3 0 13 6 22 15 22 8 0 15 -5 15 -11 0 -5 -4 -8 -9
-5 -5 4 -12 -7 -16 -24 -4 -16 -10 -32 -15 -35 -4 -3 -6 3 -3 14 3 10 0 22 -6
25 -10 7 -13 -7 -15 -76 -1 -13 -3 -25 -6 -28 -10 -9 -65 -155 -64 -167 1 -7
-2 -13 -6 -13 -8 0 -26 -58 -35 -118 -7 -43 5 -183 13 -149 2 10 9 14 15 11 8
-5 8 -2 0 7 -18 19 -16 29 5 23 9 -3 7 1 -6 8 -25 15 -20 30 6 20 18 -6 41
-32 42 -45 0 -5 -4 -6 -9 -3 -19 12 -19 -24 -1 -37 11 -8 17 -17 13 -21 -4 -4
1 -4 12 0 15 6 17 4 12 -9 -5 -14 -2 -16 21 -11 33 8 41 15 25 21 -7 3 -13 11
-13 18 0 14 -27 28 -40 20 -5 -3 -11 -1 -15 5 -3 5 -1 10 5 10 6 0 2 12 -10
28 -19 24 -20 27 -5 30 9 2 25 -4 35 -13 11 -10 26 -15 35 -11 13 5 15 0 11
-27 -5 -30 -3 -32 27 -34 24 -2 28 0 17 7 -12 8 -11 10 8 10 12 0 25 -7 28
-15 4 -8 11 -12 17 -8 6 3 7 1 3 -5 -4 -7 -2 -12 5 -12 6 0 18 -8 25 -17 13
-17 14 -17 9 2 -3 11 1 7 10 -10 8 -16 12 -40 10 -52 -3 -13 -1 -23 5 -23 5 0
10 5 10 11 0 6 9 8 20 4 15 -5 20 -2 20 12 0 14 2 15 9 4 6 -10 9 -3 8 22 -1
26 5 41 24 56 13 11 19 20 14 21 -6 0 -11 9 -11 20 0 11 5 20 11 20 5 0 4 4
-4 9 -12 8 -12 12 -2 25 12 15 15 15 26 -1 11 -15 13 -15 22 1 9 17 10 17 15
-2 4 -16 2 -19 -11 -15 -13 4 -14 3 -1 -6 8 -5 11 -14 6 -18 -4 -4 -15 2 -23
15 -9 12 -20 22 -25 22 -6 0 -5 -6 2 -15 6 -8 9 -19 5 -25 -3 -5 -2 -10 4 -10
19 0 7 -39 -16 -49 -13 -6 -23 -16 -23 -22 0 -7 9 -5 25 5 13 9 28 16 32 16 4
0 2 -4 -6 -9 -10 -7 -11 -13 -1 -32 9 -20 9 -21 -2 -9 -13 15 -58 24 -58 11 1
-19 27 -48 41 -46 17 3 20 -18 4 -32 -4 -4 -5 -3 -1 4 3 6 2 14 -4 18 -5 3
-10 1 -10 -6 0 -8 -4 -8 -16 2 -14 12 -15 9 -10 -23 4 -23 1 -42 -7 -50 -6 -8
-18 -24 -25 -37 -12 -21 -12 -23 2 -18 9 4 21 -1 28 -12 7 -10 32 -22 56 -26
37 -6 42 -4 42 12 0 10 -11 26 -25 35 -23 17 -24 17 -22 -1 1 -11 10 -23 22
-26 12 -4 15 -8 8 -12 -19 -7 -88 30 -91 50 -5 25 14 21 23 -5 5 -20 20 -12
15 8 -1 4 4 11 12 16 10 7 8 8 -6 6 -10 -2 -21 3 -23 10 -3 7 1 10 11 6 9 -3
16 -1 16 6 0 6 -4 8 -10 5 -6 -3 -10 4 -10 17 1 22 1 22 15 4 8 -11 15 -23 15
-28 0 -4 7 -8 15 -8 12 0 13 4 5 19 -13 25 -4 48 22 54 15 4 19 11 15 26 -4
16 0 21 14 21 10 0 19 4 19 9 0 5 -10 7 -22 4 -22 -4 -22 -4 -3 9 38 25 29 43
-19 38 -15 -1 -16 1 -5 13 11 12 17 11 41 -2 15 -9 28 -20 28 -24 0 -5 5 -5
12 -1 7 4 8 3 4 -4 -10 -17 3 -15 21 3 8 8 19 13 24 10 11 -7 12 -36 2 -34
-22 4 -43 -2 -38 -10 3 -5 0 -13 -6 -16 -6 -5 -8 -21 -4 -41 3 -21 2 -34 -5
-34 -9 0 -15 23 -10 45 7 38 7 66 -1 70 -8 6 -14 -22 -10 -52 1 -6 -3 -14 -9
-18 -6 -4 -7 1 -3 12 8 23 -6 10 -21 -18 -6 -12 -15 -21 -20 -20 -16 5 -24
-22 -13 -43 15 -26 28 -36 40 -29 5 3 3 9 -4 14 -7 4 -11 11 -7 14 9 9 50 -14
43 -25 -3 -4 0 -10 5 -12 6 -2 1 -14 -12 -28 -23 -24 -23 -24 -26 -3 -2 11
-12 23 -23 26 -25 7 -24 -2 7 -36 19 -23 30 -28 50 -23 20 5 23 10 15 20 -6 7
-8 16 -4 19 3 4 12 -1 19 -11 12 -16 14 -16 41 4 15 12 29 26 29 33 3 24 5 26
13 13 6 -10 14 -4 33 20 33 43 61 98 54 106 -3 3 -6 0 -6 -6 0 -7 -8 -12 -17
-13 -10 0 -13 -3 -6 -5 9 -4 9 -11 1 -30 -9 -18 -14 -21 -21 -12 -6 9 -7 8 -3
-5 3 -11 0 -20 -9 -23 -8 -4 -12 -10 -9 -15 3 -5 1 -9 -5 -9 -6 0 -15 9 -20
19 -8 14 -7 20 4 24 7 3 16 1 19 -6 2 -7 5 -4 5 6 1 13 -5 16 -24 13 -21 -4
-25 -1 -25 20 0 19 4 24 18 22 9 -2 16 -10 14 -16 -3 -15 14 -16 23 -2 3 6 1
10 -4 10 -6 0 -11 6 -11 13 0 17 -68 18 -74 0 -3 -7 -1 -13 3 -13 5 0 12 6 14
13 4 7 6 6 6 -4 1 -15 -37 -34 -47 -24 -13 12 13 47 39 52 19 4 28 10 25 19
-3 8 0 11 9 8 8 -3 11 -12 9 -19 -5 -12 12 -14 36 -5 3 1 13 2 23 1 18 -2 23
14 7 24 -5 3 -10 2 -10 -2 0 -14 -38 -13 -50 1 -8 10 -6 15 10 19 11 3 20 1
20 -4 0 -5 5 -9 12 -9 9 0 9 3 0 12 -7 7 -12 18 -12 26 0 12 3 12 15 2 8 -7
15 -8 15 -3 0 9 -54 53 -66 53 -3 0 -4 -6 -1 -14 8 -20 -4 -28 -20 -15 -10 9
-13 8 -13 -5 0 -11 8 -15 24 -14 14 1 22 6 20 10 -3 4 0 8 5 8 6 0 11 -8 11
-19 0 -16 -7 -18 -42 -17 -24 0 -46 6 -50 11 -5 6 -8 5 -8 -2 0 -7 -5 -13 -11
-13 -5 0 -7 5 -4 10 6 9 -8 14 -28 11 -4 -1 -7 6 -5 16 2 11 -4 19 -17 21 -16
2 -17 1 -5 -7 13 -9 13 -11 -2 -11 -12 0 -16 7 -13 28 2 15 4 29 5 32 2 3 2 9
0 15 -1 5 7 15 16 22 10 7 12 13 6 13 -7 0 -12 7 -12 16 0 8 -4 12 -10 9 -5
-3 -10 -15 -10 -26 0 -10 -4 -19 -10 -19 -6 0 -6 9 -1 23 5 13 4 31 -2 45 -8
17 -8 25 1 31 6 4 9 17 5 29 -3 12 -9 20 -13 17 -5 -3 -11 -1 -15 5 -12 20
-26 10 -15 -10 6 -11 15 -18 21 -15 5 4 9 2 9 -3 0 -11 -30 -25 -38 -17 -3 3
1 5 9 5 11 1 11 3 -2 13 -16 13 -24 91 -8 81 5 -3 9 -10 9 -15 0 -6 6 -17 14
-25 23 -23 26 7 4 36 -18 23 -18 25 -2 37 9 7 21 10 25 7 5 -3 9 0 9 7 0 8 4
8 15 -1 14 -12 20 -7 15 15 -1 6 5 4 12 -4 10 -11 10 -14 0 -18 -6 -3 -10 -9
-6 -14 3 -5 1 -9 -5 -9 -5 0 -11 6 -14 13 -4 10 -7 10 -18 0 -11 -11 -11 -13
2 -13 12 0 12 -2 0 -9 -17 -11 -6 -45 11 -36 7 4 4 -1 -6 -9 -11 -9 -15 -16
-8 -16 6 0 9 -7 6 -15 -4 -8 -2 -15 4 -15 5 0 12 14 16 30 3 18 12 30 21 30 9
0 13 5 10 10 -4 6 -10 8 -15 5 -5 -3 -11 -1 -14 4 -4 5 2 8 11 7 10 -2 22 2
26 8 5 7 7 4 5 -8 -2 -12 4 -20 15 -21 9 -2 17 1 17 5 0 5 3 15 6 24 4 10 -2
17 -19 21 -16 4 -24 12 -22 23 2 9 4 21 4 25 1 5 6 5 11 2 6 -4 10 5 9 22 -1
15 -3 21 -5 13 -3 -9 -19 -22 -36 -29 -28 -13 -32 -12 -45 5 -17 24 -12 37 18
45 15 4 17 7 7 8 -9 1 -29 -4 -43 -11 -20 -9 -28 -9 -38 1 -6 7 -7 12 -2 11 6
-2 17 -2 25 -1 13 1 13 3 0 10 -8 6 -18 7 -22 5 -4 -3 -8 0 -8 5 0 6 -7 11
-16 11 -19 0 -38 19 -42 43 -3 16 3 17 43 12 30 -3 44 -2 40 5 -4 6 1 7 12 3
16 -6 16 -5 5 10 -8 9 -11 21 -7 27 8 13 42 13 50 0 11 -18 35 -11 29 8 -5 15
-4 15 8 2 14 -16 29 -21 69 -22 29 -1 35 -24 7 -31 -10 -3 -18 0 -18 6 0 7 -4
6 -10 -3 -6 -9 -5 -17 3 -22 13 -8 1 -24 -22 -30 -20 -4 -49 -31 -43 -41 2 -5
-5 -11 -17 -14 -26 -7 -30 -46 -3 -41 9 2 17 8 17 15 0 6 4 15 9 20 5 5 6 3 2
-4 -4 -7 -3 -13 2 -13 6 0 13 7 16 16 3 8 10 12 16 9 14 -9 12 -72 -2 -78 -8
-4 -7 -6 4 -6 9 -1 18 -7 21 -13 3 -10 8 -9 22 2 11 8 16 10 11 3 -5 -9 -2
-11 8 -7 9 3 23 -1 32 -11 20 -19 32 -12 14 10 -7 8 -9 15 -4 15 5 0 2 5 -6
11 -12 9 -11 10 8 6 25 -6 25 -5 7 43 -8 22 -14 28 -14 16 -1 -18 -15 -14 -17
5 -1 5 -2 13 -3 18 -2 20 -42 23 -57 4 -14 -17 -14 -17 -12 7 4 35 49 40 73 8
17 -23 17 -23 12 12 -3 19 -11 73 -18 120 -6 47 -14 92 -16 100 -3 8 -6 35 -7
60 -1 30 -5 44 -13 43 -7 -2 -13 4 -13 13 0 8 5 12 11 8 11 -7 5 149 -12 296
-2 18 -29 59 -29 44 0 -5 5 -15 12 -22 8 -8 9 -12 1 -12 -10 0 -43 53 -43 67
0 2 14 -5 30 -17 l30 -21 0 73 c0 40 -4 69 -8 63 -6 -9 -25 -11 -62 -6 -9 1
-6 6 9 12 20 8 22 14 17 43 -4 20 -2 37 4 41 12 8 13 52 1 59 -5 4 -7 -7 -5
-24 6 -32 1 -37 -20 -18 -8 8 -10 19 -5 28 4 8 10 23 13 33 7 24 22 21 31 -5
21 -62 23 -64 24 -30 1 20 -3 31 -9 27 -10 -6 -14 17 -12 68 0 15 -3 27 -9 27
-5 0 -9 -7 -9 -15 0 -8 -5 -15 -11 -15 -5 0 -8 -4 -5 -9 3 -5 -1 -21 -9 -37
-7 -16 -18 -41 -24 -56 -7 -20 -15 -26 -27 -21 -23 9 -36 -18 -16 -33 9 -7 20
-10 24 -8 5 3 8 1 8 -5 0 -5 -4 -13 -10 -16 -5 -3 -10 -2 -10 4 0 5 -8 8 -18
6 -15 -2 -18 2 -17 23 2 15 6 36 10 46 6 13 5 17 -3 12 -15 -9 -54 12 -46 25
3 6 -2 17 -12 24 -11 8 -14 15 -8 15 5 0 16 -6 23 -12 11 -11 13 -10 7 5 -3
10 -6 20 -6 21 0 2 -11 1 -25 -2 -14 -2 -22 -8 -19 -13 3 -5 0 -9 -5 -9 -6 0
-11 8 -11 17 0 25 -16 3 -24 -32 -6 -27 -5 -28 8 -12 11 14 15 15 20 5 5 -10
7 -10 12 0 6 13 24 7 24 -9 0 -6 -4 -7 -10 -4 -5 3 -10 -3 -10 -14 0 -12 -7
-21 -15 -21 -8 0 -15 -4 -15 -8 0 -17 30 -8 36 10 6 19 16 23 27 11 4 -3 -1
-12 -11 -19 -10 -8 -12 -13 -4 -14 6 0 12 -5 12 -11 0 -5 -4 -8 -9 -4 -5 3
-12 -3 -14 -12 -4 -17 -5 -17 -6 0 0 9 -5 17 -10 17 -23 0 -2 -37 29 -52 47
-23 23 -23 -32 0 -24 11 -55 17 -70 15 -16 -2 -28 1 -28 7 0 5 -10 11 -22 11
-17 1 -19 2 -5 6 20 5 23 33 4 33 -7 0 -13 10 -13 21 l0 21 14 -21 c15 -21 52
-29 52 -11 0 6 5 10 11 10 6 0 9 -8 7 -17 -2 -12 -11 -17 -26 -15 -24 4 -27
-4 -12 -28 7 -11 10 -12 10 -2 0 9 7 11 20 7 15 -5 18 -3 14 9 -3 9 -1 16 4
16 6 0 10 9 9 20 -1 14 -8 20 -24 20 -13 0 -23 -4 -23 -10 0 -5 -4 -10 -10
-10 -5 0 -10 6 -10 13 0 14 37 40 43 29 2 -4 2 -2 1 5 -2 6 2 13 8 15 7 3 4
12 -7 26 -11 12 -22 17 -25 12 -3 -5 -10 -2 -16 8 -10 15 -7 17 22 17 28 0 33
-3 28 -17 -3 -10 -1 -18 5 -18 6 0 11 5 11 11 0 6 7 9 15 5 8 -3 15 -2 15 3 0
5 12 12 28 17 20 5 23 8 10 11 -10 3 -18 8 -18 13 0 5 8 6 18 3 15 -6 15 -5 3
10 -9 12 -10 17 -2 17 7 0 10 4 6 9 -3 5 -1 12 4 16 6 3 9 -2 7 -12 -2 -10 0
-29 5 -43 4 -16 7 -19 8 -7 1 20 8 21 41 2 19 -11 21 -14 8 -15 -10 0 -18 -4
-18 -9 0 -4 13 -8 30 -7 16 1 30 3 30 6 -1 11 -27 39 -32 34 -3 -2 -8 2 -11
10 -3 8 1 20 9 27 12 10 13 9 8 -5 -4 -9 -1 -16 6 -16 8 0 10 9 6 25 -7 27 3
31 35 15 21 -12 26 -29 7 -26 -7 0 -14 -3 -15 -8 -1 -5 -7 -13 -15 -17 -10 -7
-10 -9 0 -9 7 0 11 -4 8 -8 -2 -4 -1 -14 5 -22 7 -13 9 -13 10 0 1 8 0 23 -1
34 -1 10 3 15 9 12 11 -7 26 37 18 51 -8 13 -77 15 -77 3 0 -5 -5 -10 -11 -10
-6 0 -9 7 -6 15 4 8 2 17 -3 20 -6 4 -10 0 -10 -7 0 -10 -3 -9 -10 2 -8 12
-10 12 -16 -3 -5 -14 -9 -15 -20 -6 -11 9 -14 8 -14 -1 0 -7 -13 5 -28 26
l-28 39 20 17 c12 10 16 17 9 18 -7 0 -12 3 -12 8 6 35 -10 42 -29 11z m23 -9
c-3 -5 -11 -10 -16 -10 -6 0 -7 5 -4 10 3 6 11 10 16 10 6 0 7 -4 4 -10z m-32
-53 c-3 -5 -9 -3 -14 4 -4 7 -5 17 -2 22 3 5 9 3 14 -4 4 -7 5 -17 2 -22z
m-25 -14 c6 -20 9 -40 7 -44 -6 -9 26 -22 34 -14 3 3 -1 10 -8 15 -10 5 -6 8
12 7 14 -1 24 -4 22 -6 -2 -2 2 -10 10 -18 23 -22 -1 -54 -35 -46 -28 6 -51
23 -32 23 7 0 12 5 12 10 0 6 -7 10 -16 10 -10 0 -13 6 -9 19 4 13 0 20 -16
24 -19 5 -20 9 -10 21 7 8 10 20 6 26 -3 5 -2 10 3 10 5 0 14 -16 20 -37z
m-25 -70 c-5 -11 -3 -14 6 -8 9 5 12 2 9 -10 -1 -10 -9 -20 -17 -23 -8 -3 -11
0 -7 7 4 6 3 11 -3 11 -5 0 -11 -3 -14 -7 -2 -5 -2 -2 0 5 1 8 3 20 3 28 0 8
7 14 15 14 9 0 12 -6 8 -17z m70 -65 c6 -22 5 -22 -8 -4 -12 16 -19 17 -38 9
-16 -8 -28 -8 -38 -1 -11 8 -11 9 2 5 9 -3 22 -1 30 4 24 15 46 10 52 -13z
m27 2 c0 -5 -2 -10 -4 -10 -3 0 -8 5 -11 10 -3 6 -1 10 4 10 6 0 11 -4 11 -10z
m-115 -48 c-3 -3 -11 0 -18 7 -9 10 -8 11 6 5 10 -3 15 -9 12 -12z m38 -19 c8
-7 -11 -33 -23 -33 -7 0 -7 18 -1 38 2 5 18 2 24 -5z m132 -93 c3 -5 1 -10 -4
-10 -6 0 -11 5 -11 10 0 6 2 10 4 10 3 0 8 -4 11 -10z m115 -12 c0 -5 -5 -18
-10 -29 -8 -15 -7 -19 5 -19 8 0 15 -4 15 -9 0 -5 -10 -8 -23 -6 -17 4 -23 0
-23 -15 0 -11 5 -20 11 -20 5 0 3 -4 -5 -10 -8 -5 -12 -12 -8 -15 3 -3 13 1
22 10 14 15 16 15 16 1 0 -9 5 -16 10 -16 6 0 10 7 10 15 0 8 4 15 9 15 17 0
23 -20 11 -35 -13 -16 -50 -16 -50 0 0 5 -8 -3 -19 -18 -10 -15 -17 -39 -15
-53 2 -20 0 -23 -11 -14 -8 7 -20 8 -27 4 -10 -6 -10 -4 1 9 7 9 17 15 20 12
12 -7 9 29 -3 37 -6 4 -7 10 -3 15 5 4 12 2 16 -6 5 -8 8 -1 7 19 -1 27 -4 30
-24 25 -17 -4 -23 -2 -20 7 3 7 15 12 26 10 12 -2 22 1 22 6 0 5 -6 10 -12 9
-29 -1 -48 4 -48 11 0 12 34 11 41 0 4 -6 16 4 28 21 12 17 18 31 12 31 -6 0
-11 7 -11 15 0 9 6 12 15 9 8 -4 15 -10 15 -16z m-50 2 c0 -5 -4 -10 -10 -10
-5 0 -10 5 -10 10 0 6 5 10 10 10 6 0 10 -4 10 -10z m-60 -17 c-1 -20 -16 -31
-30 -23 -13 8 -12 10 3 10 10 0 15 5 12 10 -3 6 -1 10 4 10 6 0 11 -3 11 -7z
m-177 -50 c-3 -7 0 -13 6 -13 6 0 12 8 12 18 1 16 2 16 6 0 6 -23 12 -23 29
-1 14 21 19 18 29 -17 7 -25 7 -25 -10 -5 -13 16 -16 17 -11 3 6 -20 -10 -34
-17 -16 -4 10 -7 10 -14 1 -7 -9 -16 -6 -36 13 -22 20 -25 27 -15 38 15 16 29
1 21 -21z m213 -49 c18 6 17 5 0 -9 -20 -15 -36 -6 -36 20 0 6 4 4 9 -4 5 -8
16 -11 27 -7z m63 -51 c-3 -33 1 -54 9 -49 5 3 9 -1 10 -9 1 -8 3 -22 4 -30 1
-9 7 -14 15 -11 8 3 12 2 8 -3 -3 -5 -1 -11 4 -13 4 -1 11 -14 15 -28 3 -14 3
-19 0 -12 -3 6 -13 12 -22 12 -13 0 -14 2 -3 9 9 6 10 11 2 15 -6 4 -11 5 -11
2 0 -2 -3 -11 -6 -20 -4 -11 -1 -16 11 -16 13 0 15 -3 6 -13 -11 -14 -5 -27
11 -27 5 0 6 5 3 10 -3 6 -1 10 5 10 16 0 6 -120 -11 -131 -8 -5 -15 -4 -17 2
-3 6 -9 6 -17 -1 -8 -7 -22 -10 -32 -8 -20 4 -55 -21 -47 -34 12 -18 -44 6
-59 26 -6 7 -7 5 -4 -5 3 -9 0 -22 -6 -28 -14 -14 6 -37 23 -26 9 6 9 9 -1 16
-7 4 -10 11 -7 15 4 3 14 -1 24 -10 12 -12 13 -20 5 -30 -6 -7 -8 -16 -4 -19
3 -4 2 -7 -3 -7 -6 0 -15 5 -21 11 -8 8 -13 8 -17 0 -4 -6 -2 -11 3 -11 6 0
11 -4 11 -10 0 -5 -8 -6 -17 -3 -16 6 -16 5 -5 -10 8 -9 11 -21 8 -26 -4 -5
-2 -12 3 -15 5 -4 12 -2 16 4 4 6 10 8 15 5 4 -3 13 2 19 9 10 11 8 17 -6 25
-16 9 -17 10 -1 11 11 0 15 5 12 15 -4 8 -3 15 1 15 3 0 13 -7 21 -15 14 -13
14 -15 0 -15 -20 0 -16 -38 5 -51 8 -5 10 -9 5 -9 -5 0 -3 -7 4 -15 7 -8 16
-12 21 -9 5 3 15 2 22 -3 6 -4 18 -8 26 -10 8 -1 18 -9 23 -17 5 -9 18 -16 28
-16 11 0 20 -7 20 -15 0 -8 -4 -15 -10 -15 -5 0 -10 -5 -10 -11 0 -5 4 -8 9
-5 5 3 11 -3 14 -14 7 -28 -7 -25 -23 5 -7 14 -17 25 -22 25 -5 0 -4 -9 2 -19
7 -14 7 -22 -2 -27 -6 -4 -8 -3 -4 4 3 6 2 13 -4 17 -5 3 -10 1 -10 -6 0 -7
-3 -9 -6 -6 -4 4 1 18 10 31 20 31 20 36 1 36 -8 0 -15 8 -15 18 0 14 -2 15
-9 2 -6 -8 -7 -19 -3 -25 13 -21 9 -34 -14 -50 -27 -17 -31 -10 -9 19 19 25
19 36 0 36 -8 0 -13 -6 -11 -12 1 -7 1 -10 -1 -5 -7 11 -33 9 -33 -3 0 -5 5
-10 10 -10 16 0 12 -17 -6 -24 -12 -5 -15 1 -12 27 2 20 9 32 18 33 46 3 49 4
43 20 -5 15 -7 15 -15 0 -11 -19 -29 -22 -25 -3 2 13 -3 13 -43 3 -24 -6 -24
-6 3 9 23 13 26 19 17 35 -14 26 -23 26 -15 0 4 -12 2 -20 -5 -20 -6 0 -8 5
-5 10 3 6 -4 10 -16 10 -19 0 -20 -2 -8 -17 13 -16 12 -17 -3 -4 -16 12 -18
11 -18 -8 0 -14 4 -20 12 -15 6 4 8 3 5 -4 -4 -5 -17 -8 -29 -4 -12 3 -17 7
-10 10 17 5 15 23 -5 38 -23 17 -37 18 -26 2 11 -19 13 -39 2 -32 -5 3 -9 12
-9 20 0 8 -10 15 -22 15 l-23 2 23 4 c12 2 22 9 22 14 0 6 -5 7 -11 4 -6 -4
-5 3 3 15 10 18 10 24 1 27 -7 3 -13 10 -13 16 0 8 4 7 12 -1 7 -7 21 -11 33
-11 16 1 17 2 3 6 -10 2 -18 11 -18 18 0 8 -6 13 -12 11 -7 -1 -10 -1 -5 1 4
3 5 9 2 13 -3 5 0 12 6 16 8 4 9 3 5 -5 -4 -6 0 -14 8 -17 9 -3 13 -10 10 -15
-3 -5 5 -9 17 -9 l22 0 -23 25 c-18 19 -21 31 -16 55 3 17 2 29 -3 26 -5 -3
-12 1 -15 10 -10 25 -7 34 10 34 14 0 15 -2 3 -17 -12 -15 -12 -16 4 -10 9 3
17 2 17 -4 0 -6 4 -7 10 -4 5 3 18 1 27 -4 17 -10 17 -10 1 -12 -10 -1 -24 -2
-30 -3 -15 -1 -24 -56 -10 -56 16 0 22 13 11 27 -6 7 -8 13 -3 14 5 0 17 2 27
4 9 2 15 0 12 -5 -7 -11 19 -20 34 -10 7 4 12 11 12 16 -1 5 14 9 31 9 23 0
35 6 43 22 8 16 15 19 22 12 8 -8 13 -7 18 2 5 7 4 10 -3 5 -17 -10 -23 10 -7
24 8 7 12 16 9 21 -6 11 -27 12 -21 2 3 -5 -4 -16 -14 -26 -13 -15 -17 -15
-15 -4 1 8 7 21 13 29 15 17 10 54 -7 50 -6 -1 -9 2 -5 8 3 5 0 7 -9 4 -9 -3
-12 -12 -9 -21 4 -11 3 -14 -6 -9 -8 5 -10 19 -6 37 5 20 3 29 -6 29 -7 0 -10
2 -7 5 8 9 38 -6 32 -16 -3 -5 1 -6 9 -3 15 6 11 54 -5 54 -5 0 -7 -3 -5 -7 3
-5 -14 -9 -37 -9 l-41 -2 36 12 c28 9 35 16 36 36 1 44 3 60 9 60 3 0 4 -8 3
-17z m41 6 c0 20 16 12 17 -9 2 -21 -13 -22 -34 -3 -18 16 -16 28 2 13 10 -9
15 -9 15 -1z m-184 -34 c4 -8 13 -15 20 -15 12 0 12 -3 2 -14 -9 -9 -14 -10
-17 -3 -2 6 -14 19 -25 29 -19 15 -19 17 -3 18 10 0 20 -7 23 -15z m59 5 c-3
-5 -16 -10 -28 -9 -20 1 -20 2 3 9 14 4 26 8 28 9 2 1 0 -3 -3 -9z m-19 -56
c-19 -19 -21 -11 -4 16 7 11 14 16 16 10 2 -5 -4 -17 -12 -26z m-51 16 c3 -6
-1 -7 -9 -4 -18 7 -21 14 -7 14 6 0 13 -4 16 -10z m-35 -11 c0 -5 -5 -7 -11
-3 -7 4 -10 -1 -7 -12 2 -12 12 -19 25 -18 13 0 19 -4 16 -13 -6 -16 1 -16 28
0 17 10 23 10 26 0 6 -17 23 -17 23 0 0 7 10 13 21 14 21 2 21 1 3 -12 -15
-11 -17 -16 -6 -26 10 -11 12 -9 13 7 0 19 1 19 8 0 8 -20 -18 -56 -40 -56 -6
0 -9 -7 -5 -15 6 -17 -2 -19 -24 -5 -11 7 -12 10 -2 10 9 0 11 7 6 22 -6 21
-5 21 10 9 12 -10 20 -11 28 -3 12 12 1 35 -12 27 -5 -3 -11 -1 -15 4 -10 18
-36 0 -30 -20 4 -11 2 -19 -4 -19 -6 0 -8 -7 -5 -15 4 -8 1 -15 -6 -15 -6 0
-9 4 -5 9 3 5 1 12 -5 16 -5 3 -10 3 -10 -2 0 -4 -12 -14 -27 -20 -20 -9 -28
-20 -28 -38 0 -31 3 -31 15 -2 l9 22 0 -22 c1 -13 -3 -23 -9 -23 -14 0 -12
-13 6 -36 15 -19 16 -19 9 1 -5 16 -4 18 6 8 20 -20 -2 -34 -26 -17 -11 8 -19
17 -17 19 6 12 1 26 -7 21 -5 -3 -7 -16 -5 -29 4 -21 4 -21 -5 -1 -5 12 -26
35 -47 53 -41 33 -41 37 1 21 20 -8 32 -6 48 5 12 8 16 15 8 15 -7 0 -11 6 -8
14 3 7 0 19 -6 25 -8 8 -8 11 2 11 10 0 12 10 7 40 -5 33 -4 38 9 34 10 -4 15
0 15 10 0 9 7 16 15 16 8 0 15 -5 15 -11z m60 -18 c0 -4 -13 -8 -29 -7 -16 1
-27 4 -24 9 6 10 53 9 53 -2z m94 -90 c4 -5 1 -11 -4 -13 -6 -2 -4 -11 5 -23
12 -14 15 -15 12 -4 -3 9 3 23 14 32 18 16 19 15 16 -2 -2 -11 -8 -26 -15 -33
-6 -8 -9 -17 -6 -20 3 -3 1 -9 -5 -13 -6 -3 -11 1 -11 10 0 9 -5 13 -10 10 -6
-4 -7 -11 -4 -17 4 -7 2 -8 -5 -4 -9 6 -9 11 -1 21 7 8 7 15 1 19 -5 4 -9 15
-8 26 1 21 12 26 21 11z m-30 -37 c3 -8 2 -12 -4 -9 -6 3 -10 10 -10 16 0 14
7 11 14 -7z m-100 -2 c3 -5 -1 -9 -9 -9 -8 0 -12 4 -9 9 3 4 7 8 9 8 2 0 6 -4
9 -8z m60 -9 c4 -5 12 -8 17 -8 5 0 9 -3 9 -7 0 -5 0 -13 0 -20 0 -6 -10 -2
-22 9 -13 11 -30 23 -38 26 -10 4 -9 6 6 6 11 1 24 -2 28 -6z m-14 -25 c0 -4
-7 -8 -15 -8 -8 0 -15 4 -15 8 0 5 7 9 15 9 8 0 15 -4 15 -9z m120 -22 c0 -3
-4 -8 -10 -11 -5 -3 -10 -1 -10 4 0 6 5 11 10 11 6 0 10 -2 10 -4z m80 -41 c0
-8 -7 -16 -15 -16 -8 -1 -20 -2 -27 -3 -6 0 -13 -7 -16 -14 -3 -11 0 -12 16
-3 14 8 23 8 27 1 4 -6 3 -9 -2 -8 -12 3 -83 -33 -83 -43 0 -5 -11 -2 -25 7
-20 13 -22 19 -12 34 12 21 29 7 20 -16 -3 -8 2 -11 16 -7 11 3 18 9 15 14 -3
5 -1 9 5 9 6 0 8 7 4 16 -7 19 13 34 39 29 10 -2 18 0 18 6 0 5 5 9 10 9 6 0
10 -7 10 -15z m-97 -20 c-3 -9 -8 -14 -10 -11 -3 3 -2 9 2 15 9 16 15 13 8 -4z
m-206 -1 c-3 -3 -12 -4 -19 -1 -8 3 -5 6 6 6 11 1 17 -2 13 -5z m253 -50 c0
-3 -13 -19 -28 -35 -20 -22 -29 -26 -29 -15 0 9 6 16 13 16 7 0 16 9 19 20 6
18 25 29 25 14z m30 -19 c0 -7 7 -15 15 -19 8 -3 15 -11 15 -18 0 -10 -2 -10
-9 0 -4 7 -14 12 -21 10 -7 -2 -14 9 -17 25 -2 18 0 26 7 22 5 -3 10 -12 10
-20z m-50 -45 c-12 -8 -12 -10 3 -16 9 -3 17 -12 17 -20 0 -8 -6 -11 -15 -8
-8 4 -13 10 -10 14 3 5 1 11 -5 15 -13 8 -3 25 13 25 7 0 6 -4 -3 -10z m45
-10 c3 -5 1 -10 -4 -10 -6 0 -11 5 -11 10 0 6 2 10 4 10 3 0 8 -4 11 -10z m26
-24 c-9 -11 -8 -17 4 -29 11 -12 12 -18 3 -23 -6 -4 -14 -2 -16 4 -2 7 -10 19
-18 26 -18 19 -18 30 1 22 9 -3 18 1 22 10 3 8 8 13 11 10 3 -3 0 -12 -7 -20z
m-343 -13 c2 -7 -1 -13 -8 -13 -6 0 -9 4 -5 9 3 5 -3 12 -12 15 -15 4 -15 5 1
3 11 -1 21 -8 24 -14z m47 -3 c-3 -5 -1 -10 6 -10 7 0 10 -2 8 -5 -3 -2 -15
-2 -28 2 -17 4 -19 8 -9 14 18 12 31 11 23 -1z m159 -39 c-10 -10 -21 -16 -24
-14 -3 3 4 11 14 19 28 20 33 17 10 -5z m-304 -13 c0 -9 4 -8 10 2 9 14 12 12
9 -6 0 -4 5 -10 11 -14 9 -5 9 -9 1 -14 -6 -4 -11 -2 -11 5 0 6 -8 9 -18 7
-21 -6 -48 18 -29 25 21 9 27 7 27 -5z m210 1 c0 -6 7 -9 15 -5 8 3 14 2 14
-2 -1 -4 0 -9 1 -12 8 -22 6 -41 -6 -51 -8 -7 -17 -9 -21 -5 -3 3 -1 6 6 6 7
0 9 5 6 10 -5 8 -11 7 -20 0 -8 -7 -20 -8 -27 -4 -7 4 -2 -5 11 -19 26 -28 21
-38 -5 -12 -9 8 -20 15 -27 15 -6 0 -2 -6 9 -14 18 -14 18 -15 1 -28 -14 -10
-17 -23 -14 -46 3 -18 1 -32 -4 -32 -10 0 -12 12 -11 48 1 12 -3 22 -8 22 -6
0 -10 4 -10 9 0 5 8 7 19 4 10 -3 22 1 26 7 5 9 1 10 -15 5 -19 -6 -21 -4 -15
14 9 31 -2 26 -20 -9 -13 -25 -13 -30 -1 -37 12 -7 12 -12 2 -31 -12 -22 -13
-22 -27 -6 -12 16 -12 17 4 11 18 -7 24 7 7 18 -10 6 -21 -1 -62 -39 l-21 -19
24 -12 c20 -11 25 -11 37 6 7 11 18 17 23 14 15 -10 10 -25 -6 -19 -8 4 -15 1
-15 -6 0 -6 8 -10 18 -8 9 2 16 11 16 21 -1 9 2 17 7 17 19 0 9 -42 -11 -47
-21 -6 -26 -18 -10 -28 11 -7 50 29 51 48 1 6 4 2 7 -10 7 -22 7 -22 32 -3 20
15 23 21 13 31 -11 11 -13 10 -13 -4 0 -9 -4 -17 -10 -17 -13 0 -13 17 0 25 6
4 8 11 5 16 -4 5 -1 9 4 9 6 0 11 -4 11 -9 0 -5 9 -13 21 -16 19 -6 19 -8 3
-19 -9 -7 -14 -18 -10 -25 10 -15 28 -3 20 12 -5 8 -3 8 7 0 7 -7 21 -13 30
-13 16 0 36 -29 21 -31 -4 0 -22 -2 -39 -3 -22 -3 -33 1 -33 10 0 19 -19 27
-33 15 -7 -5 -23 -8 -35 -4 -17 4 -22 1 -22 -14 0 -29 -27 -24 -42 7 -11 22
-16 25 -26 14 -7 -8 -8 -15 -2 -19 6 -3 10 -11 10 -18 0 -6 -7 -2 -16 9 -11
14 -17 16 -21 6 -5 -14 -22 4 -47 54 l-14 25 -4 -25 c-3 -16 -1 -23 7 -20 6 3
17 -7 23 -21 15 -33 15 -33 -5 -31 -12 1 -17 -8 -19 -34 -1 -19 0 -25 3 -12 4
20 12 26 30 20 10 -4 12 -38 2 -38 -4 0 -10 6 -12 13 -4 7 -6 6 -6 -5 -1 -9
-7 -18 -13 -21 -7 -2 -10 -8 -5 -12 4 -5 13 -3 19 3 7 7 17 12 23 12 5 0 2 -5
-7 -11 -17 -10 -14 -39 4 -39 5 0 7 4 3 9 -3 5 -1 12 5 16 13 8 13 -7 -2 -42
-6 -15 -10 -32 -9 -36 1 -5 -3 -6 -9 -2 -8 5 -8 11 0 20 14 16 5 35 -15 35
-11 0 -13 -8 -8 -32 3 -18 10 -36 15 -39 5 -3 6 -14 2 -24 -6 -14 -4 -16 6
-10 9 6 11 4 5 -5 -4 -7 -4 -15 1 -19 16 -11 32 -68 23 -82 -6 -10 -9 -6 -9
14 0 21 -5 27 -22 27 -22 -1 -23 -1 -4 -15 11 -8 16 -15 12 -15 -5 0 -3 -6 4
-14 18 -23 43 -8 35 21 -5 21 -3 24 14 18 12 -3 29 -1 38 4 15 9 14 10 -9 7
-35 -6 -45 9 -18 26 26 16 26 28 0 28 -11 0 -20 5 -20 12 0 6 3 8 7 5 3 -4 11
3 17 15 6 13 20 24 30 26 11 3 16 0 12 -7 -4 -6 -3 -11 3 -11 5 0 11 5 13 12
3 8 6 6 10 -4 4 -9 0 -24 -9 -35 -12 -15 -14 -15 -10 -1 4 10 -2 18 -16 22
-28 7 -34 -1 -18 -26 11 -18 11 -23 -3 -33 -20 -15 -9 -27 15 -15 9 6 24 7 32
4 8 -3 18 -1 21 4 3 6 -1 13 -10 16 -8 3 -12 2 -9 -4 3 -6 -1 -7 -10 -4 -14 6
-14 8 2 19 14 11 19 10 29 -3 17 -24 -1 -58 -22 -41 -11 9 -14 7 -14 -10 0
-12 4 -20 9 -16 5 3 12 1 15 -4 4 -5 22 -7 41 -4 22 4 35 2 36 -6 1 -6 2 -17
3 -23 2 -15 -25 -38 -36 -32 -5 3 -8 1 -8 -4 0 -5 -11 -12 -24 -14 -17 -4 -23
-1 -19 9 3 7 0 13 -6 13 -6 0 -11 -7 -11 -15 0 -8 -4 -15 -9 -15 -5 0 -8 8 -6
18 2 9 4 21 4 26 1 4 8 5 17 2 9 -3 12 -2 9 4 -4 6 -3 10 2 9 19 -3 23 2 11
15 -13 13 -42 11 -33 -4 6 -10 -44 -52 -56 -45 -5 4 -7 11 -4 16 4 5 -7 6 -25
3 -23 -5 -30 -3 -30 9 0 23 -31 51 -40 37 -9 -15 -43 17 -37 35 7 17 -4 31
-30 39 -15 5 -23 3 -23 -4 0 -7 -5 -7 -14 2 -17 16 -15 34 8 81 10 20 16 46
13 56 -3 14 -1 18 9 14 9 -3 12 0 9 9 -3 8 1 21 10 28 8 7 15 9 15 6 0 -4 9
-2 20 4 25 13 26 40 3 39 -11 0 -13 -3 -5 -6 6 -2 12 -9 12 -14 0 -6 -8 -5
-20 1 -28 15 -15 43 17 35 22 -5 23 -4 13 15 -10 18 -14 19 -27 8 -15 -12 -15
-11 -4 10 6 12 17 22 24 23 9 0 9 2 0 6 -7 2 -13 14 -13 24 0 11 5 17 10 14 6
-4 7 -12 3 -18 -4 -7 0 -6 10 2 9 7 15 17 12 21 -3 4 3 14 12 21 14 12 16 12
11 -2 -5 -12 0 -15 24 -14 30 2 47 18 48 45 0 13 1 13 10 0 9 -13 14 -7 11 13
0 4 4 7 10 7 5 0 8 4 4 9 -7 12 32 34 45 26 6 -3 10 1 10 10 0 9 3 14 8 11 4
-2 16 2 26 10 16 11 17 16 6 29 -8 10 -9 15 -1 15 6 0 11 -5 11 -11z m-25 -19
c-3 -5 -14 -10 -23 -9 -14 0 -13 2 3 9 27 11 27 11 20 0z m105 -4 c0 -11 -19
-15 -25 -6 -3 5 1 10 9 10 9 0 16 -2 16 -4z m-28 -78 c-6 -6 -12 -6 -16 1 -4
6 -2 11 3 11 6 0 12 10 12 23 2 22 2 22 6 -2 3 -13 0 -28 -5 -33z m-209 -15
c-19 -19 -36 -33 -39 -31 -2 3 5 13 16 23 11 10 20 26 20 36 0 12 6 16 18 12
17 -4 15 -9 -15 -40z m-28 7 c-20 -22 -35 -26 -35 -8 0 6 3 8 7 5 3 -4 13 2
21 14 8 11 17 18 20 15 3 -3 -3 -15 -13 -26z m453 -34 c0 -22 -3 -23 -19 -13
-18 11 -18 13 -2 25 22 15 21 16 21 -12z m-298 -6 c0 -5 -4 -10 -10 -10 -5 0
-10 5 -10 10 0 6 5 10 10 10 6 0 10 -4 10 -10z m-108 -43 c-12 -6 -25 -7 -29
-3 -11 10 18 25 35 18 13 -4 11 -8 -6 -15z m328 -7 c0 -5 -5 -10 -11 -10 -5 0
-7 5 -4 10 3 6 8 10 11 10 2 0 4 -4 4 -10z m70 -16 c0 -2 -9 -4 -21 -4 -11 0
-18 4 -14 10 5 8 35 3 35 -6z m0 -33 c0 -11 -6 -21 -12 -24 -7 -2 -9 -8 -5
-13 5 -5 13 -1 18 9 9 15 39 25 39 12 0 -13 -38 -40 -59 -43 -17 -1 -22 2 -17
13 3 8 0 15 -7 16 -7 0 -1 5 13 11 l25 10 -22 9 c-29 11 -29 14 2 17 19 1 25
-3 25 -17z m-300 -31 c0 -5 -2 -10 -4 -10 -3 0 -8 5 -11 10 -3 6 -1 10 4 10 6
0 11 -4 11 -10z m-125 -10 c-3 -6 4 -23 16 -38 12 -15 19 -19 16 -10 -7 19 21
34 37 18 7 -7 5 -10 -8 -10 -9 0 -15 -4 -11 -9 9 -16 -15 -24 -30 -11 -12 10
-15 9 -15 -5 0 -21 -13 -12 -16 10 -1 8 2 13 7 9 5 -3 9 -1 9 5 0 5 -5 11 -12
13 -11 4 -5 38 7 38 4 0 3 -5 0 -10z m245 0 c0 -5 -10 -10 -22 -9 -22 0 -22 1
-3 9 11 5 21 9 23 9 1 1 2 -3 2 -9z m-200 -10 c0 -5 -8 -10 -17 -10 -15 0 -16
2 -3 10 19 12 20 12 20 0z m94 -4 c11 -1 23 2 26 5 3 4 14 1 24 -7 11 -8 14
-14 8 -14 -7 0 -12 -6 -12 -12 0 -7 -11 -26 -24 -43 -19 -24 -27 -27 -37 -18
-10 10 -7 14 14 22 15 6 27 13 27 17 0 3 -7 3 -16 0 -10 -4 -14 -1 -11 6 2 7
11 12 19 10 9 -1 18 4 21 11 4 10 -5 14 -34 14 -34 0 -37 -2 -26 -15 8 -11 8
-14 0 -9 -6 4 -13 2 -15 -5 -3 -7 -7 -2 -10 10 -4 12 -2 22 4 22 5 0 6 5 2 12
-5 7 -3 8 6 3 7 -4 22 -8 34 -9z m-14 -55 c0 -5 -7 -12 -16 -15 -14 -5 -15 -4
-4 9 14 17 20 19 20 6z m-41 -20 c8 -14 7 -20 -4 -25 -11 -4 -15 2 -15 19 0
30 6 32 19 6z m-29 0 c0 -6 -9 -9 -20 -8 -11 1 -20 5 -20 9 0 4 9 8 20 8 11 0
20 -4 20 -9z m132 -48 c-3 -21 -7 -33 -9 -26 -5 13 -33 6 -33 -8 0 -5 3 -8 8
-7 10 3 52 -25 52 -36 0 -4 -7 -3 -15 4 -13 10 -15 9 -15 -10 0 -16 4 -20 15
-16 26 10 44 -4 43 -34 -1 -30 -8 -28 -45 12 -17 18 -43 14 -43 -7 0 -8 5 -17
12 -21 8 -5 9 -2 5 9 -8 21 0 22 19 2 13 -13 12 -15 -10 -21 -14 -3 -29 -3
-35 0 -5 3 -12 0 -14 -6 -3 -8 -6 -9 -6 -2 -1 6 10 27 24 47 13 20 20 39 15
42 -5 3 -13 -3 -19 -12 -5 -10 -13 -14 -18 -9 -4 5 -2 11 5 13 6 3 12 11 12
18 0 9 8 11 22 7 13 -3 19 -1 15 6 -4 5 -21 8 -37 6 -17 -3 -30 -1 -30 5 0 6
6 10 13 9 7 -2 11 5 9 15 -4 21 15 47 32 47 6 0 3 -7 -6 -14 -16 -12 -15 -26
3 -26 9 0 24 40 21 53 -1 5 1 6 6 3 4 -2 6 -22 4 -43z m-143 19 c8 -8 24 -11
37 -8 26 7 37 -4 23 -24 -6 -11 -9 -12 -9 -2 0 7 -8 12 -18 10 -11 -2 -25 2
-33 9 -14 11 -19 13 -40 13 -5 0 -7 4 -4 10 8 12 25 9 44 -8z m-17 -27 c3 0
10 -3 14 -7 7 -7 -10 -12 -29 -9 -5 1 -6 -3 -2 -9 6 -10 -11 -50 -23 -50 -4 0
-8 15 -9 33 -1 26 0 28 7 12 8 -18 9 -18 10 5 2 14 2 29 1 33 -1 5 4 5 11 0 7
-4 16 -8 20 -8z m203 -45 c-3 -5 -12 -7 -20 -3 -21 7 -19 13 6 13 11 0 18 -4
14 -10z m5 -30 c0 -5 -5 -10 -11 -10 -5 0 -7 5 -4 10 3 6 8 10 11 10 2 0 4 -4
4 -10z m-226 -18 c2 -4 -2 -18 -10 -32 l-15 -25 4 27 c2 15 0 25 -4 22 -5 -3
-9 0 -9 5 0 13 26 15 34 3z m-147 -33 c1 -12 -3 -18 -10 -16 -7 3 -11 10 -9
16 1 7 -2 10 -8 6 -5 -3 -10 -13 -10 -21 0 -11 -4 -12 -18 -3 -24 15 -24 38
-1 34 10 -2 21 0 24 5 9 15 31 1 32 -21z m393 -94 c0 -12 -19 -12 -23 0 -4 9
-1 12 9 8 7 -3 14 -7 14 -8z m-104 -43 c0 -14 -7 -17 -36 -13 l-35 4 35 13
c19 7 35 13 35 13 1 1 1 -7 1 -17z m124 -12 c0 -5 -5 -10 -11 -10 -7 0 -10
-14 -7 -35 2 -19 1 -35 -3 -35 -12 0 -16 64 -5 77 13 15 26 17 26 3z m-160
-21 c-12 -9 -11 -10 6 -6 17 4 20 1 17 -14 -3 -11 -10 -19 -15 -19 -5 0 -7 4
-4 9 3 5 -1 12 -10 15 -17 6 -10 26 9 26 7 0 6 -4 -3 -11z m90 -23 c0 -3 -4
-8 -10 -11 -5 -3 -10 -1 -10 4 0 6 5 11 10 11 6 0 10 -2 10 -4z m106 -63 c-2
-25 26 -27 51 -3 23 21 25 20 49 -25 8 -15 6 -23 -5 -32 -12 -9 -12 -12 -3
-13 7 0 10 -5 7 -10 -5 -8 -11 -7 -21 1 -9 7 -14 8 -13 3 4 -21 -2 -35 -12
-29 -10 7 -26 41 -27 59 -1 4 -13 15 -28 22 -22 12 -29 12 -35 2 -6 -9 -11
-10 -19 -2 -9 9 -5 13 14 18 14 3 26 11 26 16 0 6 4 10 9 10 5 0 8 -8 7 -17z
m9 -123 c-3 -5 -12 -10 -18 -10 -7 0 -6 4 3 10 19 12 23 12 15 0z"/>
<path d="M7076 5688 c5 -8 2 -9 -11 -4 -15 5 -16 4 -5 -9 7 -8 16 -12 21 -9
13 7 11 34 -2 34 -5 0 -7 -5 -3 -12z"/>
<path d="M7075 4860 c3 -5 1 -10 -6 -10 -7 0 -5 -8 6 -20 17 -18 20 -19 28 -5
5 10 4 21 -3 31 -14 16 -35 20 -25 4z"/>
<path d="M7020 5180 c0 -5 5 -10 11 -10 5 0 7 5 4 10 -3 6 -8 10 -11 10 -2 0
-4 -4 -4 -10z"/>
<path d="M7031 5161 c-10 -7 -8 -12 9 -24 l21 -15 -22 -16 c-13 -8 -20 -18
-16 -22 3 -3 18 3 34 14 26 19 34 22 49 22 4 0 1 7 -6 15 -7 8 -22 13 -34 11
-11 -2 -15 -1 -8 1 7 3 10 9 7 14 -8 11 -16 11 -34 0z"/>
<path d="M7015 5120 c-3 -5 -1 -10 4 -10 6 0 11 5 11 10 0 6 -2 10 -4 10 -3 0
-8 -4 -11 -10z"/>
<path d="M6987 5046 c-15 -11 -15 -15 -3 -25 14 -12 18 -9 29 22 8 20 -1 21
-26 3z"/>
<path d="M7093 4703 c-7 -2 -13 -9 -13 -15 0 -7 5 -7 13 1 8 6 16 8 19 5 3 -3
9 -1 13 5 6 11 -10 13 -32 4z"/>
<path d="M6880 4560 c-9 -6 -11 -10 -3 -10 7 0 10 -6 7 -14 -3 -8 4 -20 15
-28 12 -8 18 -18 13 -23 -4 -4 3 -2 16 4 12 6 22 14 22 17 0 3 -4 3 -9 0 -12
-8 -39 26 -36 47 4 19 -3 21 -25 7z"/>
<path d="M7127 4493 c-4 -3 -7 -11 -7 -17 0 -6 5 -5 12 2 6 6 9 14 7 17 -3 3
-9 2 -12 -2z"/>
<path d="M6823 4384 c0 -11 5 -22 11 -26 6 -4 -4 -8 -22 -8 -31 0 -32 -1 -20
-22 15 -28 15 -29 17 -75 1 -30 4 -35 12 -23 9 12 10 11 6 -7 -3 -13 -1 -26 5
-29 7 -4 7 -9 0 -13 -7 -4 -7 -12 -3 -20 5 -7 14 -10 20 -7 6 4 9 11 6 16 -11
18 -14 74 -4 91 7 15 6 17 -6 13 -8 -4 -15 -11 -15 -17 0 -6 -3 -8 -6 -5 -9
10 16 49 26 43 6 -3 7 1 4 9 -9 23 -33 28 -27 5 3 -11 0 -19 -8 -19 -7 0 -9 3
-6 6 3 4 1 16 -4 27 -10 18 -9 19 19 14 17 -4 34 -2 37 3 3 6 -1 7 -10 4 -10
-4 -14 -2 -10 8 3 7 -1 22 -8 32 -13 18 -14 18 -14 0z"/>
<path d="M6758 4273 c-3 -11 4 -25 17 -35 17 -13 22 -13 22 -3 0 8 -5 13 -10
12 -5 -1 -12 4 -15 12 -3 10 0 12 12 8 12 -5 16 -3 14 5 -7 21 -35 21 -40 1z"/>
<path d="M6850 4211 c0 -14 30 -41 43 -40 9 0 8 2 0 6 -7 2 -13 13 -13 24 0
10 -7 19 -15 19 -8 0 -15 -4 -15 -9z"/>
<path d="M6947 4138 c6 -11 41 -10 47 1 3 4 -8 8 -23 7 -16 -1 -27 -4 -24 -8z"/>
<path d="M7050 4105 c-15 -27 -9 -42 12 -29 7 5 16 9 20 9 3 0 10 4 15 8 4 5
4 8 -2 7 -23 -5 -34 1 -29 15 10 24 -1 17 -16 -10z"/>
<path d="M7080 4119 c0 -5 5 -7 10 -4 6 3 10 8 10 11 0 2 -4 4 -10 4 -5 0 -10
-5 -10 -11z"/>
<path d="M6953 4100 c1 -11 2 -20 2 -20 0 0 8 9 18 20 16 19 16 20 -2 20 -14
0 -19 -6 -18 -20z"/>
<path d="M7135 4190 c3 -5 10 -10 16 -10 5 0 9 5 9 10 0 6 -7 10 -16 10 -8 0
-12 -4 -9 -10z"/>
<path d="M7285 3880 c-3 -5 1 -10 10 -10 9 0 13 5 10 10 -3 6 -8 10 -10 10 -2
0 -7 -4 -10 -10z"/>
<path d="M7308 5810 c-2 -22 0 -47 4 -57 4 -10 7 6 7 40 1 66 -5 76 -11 17z"/>
<path d="M7230 5821 c0 -5 9 -7 20 -4 11 3 20 7 20 9 0 2 -9 4 -20 4 -11 0
-20 -4 -20 -9z"/>
<path d="M7312 5710 c0 -14 2 -19 5 -12 2 6 2 18 0 25 -3 6 -5 1 -5 -13z"/>
<path d="M7297 5661 c-3 -12 -1 -21 3 -21 4 0 8 -16 8 -36 0 -19 3 -38 7 -42
8 -9 4 94 -5 109 -5 6 -9 3 -13 -10z"/>
<path d="M7160 5626 c0 -9 -3 -16 -7 -17 -5 0 -18 -2 -30 -3 -13 -2 -26 -6
-30 -11 -5 -4 2 -6 14 -3 14 4 28 -1 38 -12 16 -18 49 -21 73 -6 17 10 15 26
-4 26 -8 0 -12 -4 -9 -10 4 -6 -1 -7 -10 -3 -10 3 -21 0 -26 -8 -7 -11 -8 -9
-6 6 1 11 6 25 10 32 4 6 3 14 -3 18 -5 3 -10 -1 -10 -9z"/>
<path d="M7240 5592 c0 -7 0 -15 -1 -19 -1 -13 -28 -25 -39 -18 -15 9 -32 -4
-23 -18 8 -12 9 -17 12 -37 2 -18 31 2 31 22 0 12 4 17 13 12 6 -4 9 -3 4 1
-4 5 1 17 10 27 13 14 14 21 5 30 -9 9 -12 9 -12 0z"/>
<path d="M7145 5540 c3 -5 0 -10 -7 -10 -8 0 -6 -5 5 -11 24 -14 41 -2 23 17
-17 16 -30 19 -21 4z"/>
<path d="M7296 5455 c-3 -9 0 -15 9 -15 16 0 20 16 6 24 -5 3 -11 -1 -15 -9z"/>
<path d="M7043 5445 c0 -8 7 -15 15 -15 7 0 12 5 10 12 -6 18 -25 21 -25 3z"/>
<path d="M7312 5410 c0 -14 2 -19 5 -12 2 6 2 18 0 25 -3 6 -5 1 -5 -13z"/>
<path d="M6892 5193 c3 -33 6 -38 31 -40 22 -1 27 2 23 13 -3 9 -6 19 -6 24 0
12 -29 40 -41 40 -6 0 -9 -17 -7 -37z m38 1 c0 -3 -6 -12 -14 -20 -13 -12 -15
-12 -13 6 1 17 27 31 27 14z"/>
<path d="M6881 5119 c-1 -25 3 -36 14 -36 9 0 11 4 6 11 -5 6 -11 22 -14 36
-3 19 -5 17 -6 -11z"/>
<path d="M6882 4913 c4 -21 34 -25 50 -6 11 14 10 15 -10 9 -13 -5 -22 -3 -22
3 0 6 -5 11 -11 11 -6 0 -9 -7 -7 -17z"/>
<path d="M6900 4883 c0 -3 8 -12 18 -19 14 -12 14 -13 1 -8 -22 7 -33 -32 -11
-41 8 -3 17 -3 20 0 3 3 0 5 -7 5 -7 0 -9 5 -6 10 4 6 10 8 14 5 4 -2 8 7 7
22 -1 17 -7 27 -18 29 -10 1 -18 0 -18 -3z"/>
<path d="M6985 4750 c-4 -6 -11 -8 -16 -5 -5 4 -9 1 -9 -4 0 -6 5 -11 10 -11
6 0 10 -12 11 -27 0 -25 1 -25 8 -8 5 11 4 25 -1 32 -6 7 -3 15 9 22 10 6 13
11 6 11 -6 0 -15 -5 -18 -10z"/>
<path d="M7190 4644 c0 -17 22 -14 28 4 2 7 -3 12 -12 12 -9 0 -16 -7 -16 -16z"/>
<path d="M7269 4634 c-10 -13 -10 -17 2 -25 11 -8 10 -9 -6 -7 -11 2 -20 8
-20 15 0 22 -13 25 -39 8 -13 -9 -23 -22 -20 -29 3 -7 -2 -13 -10 -13 -8 0
-13 4 -10 9 7 11 0 10 -29 -5 l-25 -13 29 -11 c16 -6 29 -8 29 -3 0 4 9 10 20
13 13 3 18 11 14 20 -3 10 1 14 16 13 18 -1 30 -21 13 -21 -5 0 -19 -8 -32
-17 -27 -19 -20 -44 8 -28 10 5 21 7 24 4 8 -9 27 32 19 41 -4 4 3 2 16 -4 15
-8 22 -8 22 -1 0 6 5 8 11 4 6 -3 4 5 -5 19 -13 19 -14 26 -4 29 8 3 9 6 1 11
-6 4 -17 0 -24 -9z"/>
<path d="M7096 4599 c3 -5 14 -9 25 -9 10 0 19 4 19 9 0 5 -11 9 -25 9 -13 0
-22 -4 -19 -9z"/>
<path d="M7426 4405 c3 -16 6 -34 7 -40 1 -5 6 -13 11 -17 6 -4 4 -14 -5 -24
-8 -10 -9 -15 -2 -11 13 8 18 3 27 -35 4 -17 2 -28 -4 -28 -5 0 -10 8 -10 17
0 9 -3 13 -7 9 -5 -4 -8 -12 -8 -17 0 -5 -3 -9 -7 -9 -5 0 -12 0 -18 0 -15 0
-12 16 6 34 19 20 11 20 -26 1 -29 -15 -30 -15 -20 9 5 13 6 27 3 30 -12 12
13 6 27 -6 8 -7 6 -3 -4 10 -18 21 -20 21 -38 6 -18 -17 -26 -40 -10 -30 4 2
6 -11 4 -30 -3 -26 -1 -34 12 -34 9 0 16 -5 16 -12 0 -6 3 -8 7 -4 5 4 -1 14
-11 22 -20 14 -10 20 10 6 13 -9 26 -42 16 -43 -4 -1 -20 -3 -37 -5 -16 -2
-39 -4 -50 -6 -11 -2 -20 2 -20 9 0 7 -8 22 -18 34 -10 11 -16 24 -12 27 4 4
11 -1 16 -11 6 -9 15 -15 21 -11 6 4 5 10 -3 15 -8 5 -9 9 -3 9 6 0 17 -7 24
-15 10 -12 9 -16 -2 -20 -8 -3 -15 -13 -15 -22 0 -14 2 -14 12 1 7 9 19 14 28
10 14 -5 14 -2 4 19 -6 14 -16 23 -21 20 -5 -4 -7 0 -4 9 7 18 -37 78 -58 78
-8 0 -14 -5 -14 -11 0 -5 4 -8 9 -4 5 3 13 0 17 -6 4 -8 3 -9 -4 -5 -7 4 -12
1 -12 -6 0 -10 -3 -9 -10 2 -11 18 -21 10 -23 -19 -1 -11 -7 -21 -13 -21 -15
0 -26 -28 -14 -35 6 -4 10 0 10 7 1 8 5 7 14 -5 8 -10 19 -16 26 -15 7 2 14
-2 17 -9 3 -7 -4 -10 -19 -6 -19 5 -21 3 -11 -8 10 -10 9 -16 -4 -31 -15 -17
-15 -18 1 -18 16 0 16 -1 1 -16 -13 -13 -14 -19 -4 -25 8 -4 19 -3 25 2 9 7
21 5 38 -6 23 -16 26 -16 26 -1 0 10 -6 14 -17 10 -15 -5 -15 -3 2 11 19 15
20 15 26 -7 5 -20 7 -21 13 -6 6 13 13 15 31 8 13 -5 25 -6 28 -4 3 3 15 0 27
-6 16 -9 20 -18 16 -35 -4 -17 -1 -27 11 -35 16 -9 15 -10 -4 -5 -29 8 -29 -6
-1 -31 19 -17 21 -17 15 -1 -4 9 -2 17 3 17 6 0 10 9 10 21 0 13 -5 19 -13 16
-10 -4 -12 3 -9 24 2 16 8 29 13 29 5 0 6 -8 3 -17 -5 -17 -5 -17 5 -1 12 18
10 95 -2 91 -4 -2 -16 -3 -27 -3 -11 0 -20 -4 -20 -10 0 -6 9 -6 25 0 29 11
29 11 10 -26 -8 -16 -15 -24 -15 -17 0 8 -11 11 -30 8 -40 -5 -84 17 -68 33
17 17 31 15 25 -2 -6 -16 10 -26 31 -18 6 2 12 9 12 14 0 6 -6 5 -15 -2 -12
-10 -15 -10 -15 4 0 9 6 16 14 16 9 0 13 9 11 25 -2 21 0 23 12 13 9 -7 13 -7
11 -1 -2 6 0 11 5 12 21 3 26 0 21 -14 -4 -8 -1 -15 5 -15 21 0 5 89 -33 185
-13 31 -15 33 -10 10z m-123 -106 c4 -16 3 -18 -8 -9 -7 6 -21 8 -31 4 -11 -3
-9 1 6 10 14 8 26 15 26 16 1 0 4 -9 7 -21z m-53 -39 c0 -5 -2 -10 -4 -10 -3
0 -8 5 -11 10 -3 6 -1 10 4 10 6 0 11 -4 11 -10z m27 -75 c0 -8 -9 -15 -21
-15 -20 0 -20 0 0 15 10 8 19 15 20 15 0 0 1 -7 1 -15z m63 0 c0 -2 -9 -9 -19
-15 -14 -7 -22 -7 -27 2 -4 6 -3 8 4 4 6 -3 13 -2 17 4 6 10 25 14 25 5z m-55
-35 c-3 -5 -12 -10 -18 -10 -7 0 -6 4 3 10 19 12 23 12 15 0z"/>
<path d="M7325 4400 c-3 -4 2 -10 9 -13 8 -3 16 -1 19 6 2 8 5 8 11 -1 4 -7 2
-12 -3 -12 -6 0 -11 -7 -11 -15 0 -8 -5 -15 -11 -15 -5 0 -7 -4 -4 -10 3 -5 1
-10 -4 -10 -14 0 -14 13 1 28 17 17 4 24 -17 8 -17 -12 -17 -15 -3 -35 l16
-22 23 33 c13 18 27 36 32 39 5 3 0 10 -10 14 -28 12 -42 14 -48 5z"/>
<path d="M7260 4111 c0 -6 6 -11 13 -11 8 0 7 -4 -3 -11 -12 -8 -12 -9 5 -7
11 1 26 -1 33 -5 25 -16 11 2 -18 23 -16 12 -30 17 -30 11z"/>
<path d="M7405 4110 c-3 -5 -1 -10 4 -10 6 0 11 5 11 10 0 6 -2 10 -4 10 -3 0
-8 -4 -11 -10z"/>
<path d="M6830 4093 c0 -7 4 -13 9 -13 5 0 11 6 14 13 3 8 -1 14 -9 14 -8 0
-14 -6 -14 -14z"/>
<path d="M6870 4050 c0 -5 5 -10 10 -10 6 0 10 5 10 10 0 6 -4 10 -10 10 -5 0
-10 -4 -10 -10z"/>
<path d="M6896 4039 c-14 -11 -26 -27 -26 -35 0 -11 -4 -12 -16 -6 -23 13 -54
3 -54 -17 0 -14 2 -14 10 -1 9 13 11 13 19 1 5 -8 7 -21 4 -30 -3 -12 -2 -12
7 2 6 9 8 23 4 30 -5 8 -2 8 9 -2 9 -7 15 -17 12 -21 -3 -5 -1 -20 5 -34 6
-16 6 -27 0 -31 -6 -4 -10 -1 -10 4 0 6 -7 11 -15 11 -18 0 -19 -12 -3 -28 9
-9 9 -12 0 -12 -14 0 -33 40 -25 53 2 4 -3 7 -11 7 -8 0 -18 4 -21 10 -4 6 1
7 12 3 15 -5 16 -3 6 8 -9 9 -16 10 -24 2 -7 -7 -6 -14 3 -24 7 -8 21 -26 30
-41 10 -15 38 -41 64 -58 48 -34 63 -37 32 -7 -10 9 -18 15 -18 12 0 -3 -9 3
-20 12 -19 17 -19 17 0 35 11 11 20 25 20 33 0 9 6 12 17 8 12 -5 14 -3 8 8
-7 12 -6 12 7 1 11 -9 18 -10 23 -2 3 5 2 10 -4 10 -6 0 -7 8 -4 18 6 14 4 15
-9 5 -8 -7 -18 -10 -21 -6 -4 3 -7 1 -7 -5 0 -24 -15 -11 -17 15 -1 19 1 22 8
12 5 -8 9 -9 9 -3 0 5 -5 15 -12 22 -8 8 -8 12 -1 12 14 0 34 -25 26 -33 -3
-4 -1 -7 5 -7 16 0 15 6 -4 36 -16 23 -15 24 1 17 14 -5 16 -3 10 8 -6 11 -5
12 6 2 20 -20 31 -15 17 7 -16 25 -19 25 -52 -1z"/>
<path d="M6731 4040 c0 -8 4 -22 9 -30 12 -18 12 -2 0 25 -6 13 -9 15 -9 5z"/>
<path d="M6763 4024 c0 -17 2 -22 7 -13 5 6 6 18 3 26 -8 19 -10 16 -10 -13z"/>
<path d="M6970 4021 c0 -8 -7 -11 -20 -8 -23 6 -25 -2 -9 -37 14 -30 29 -26
22 7 -4 22 -4 22 10 -2 8 -14 17 -19 21 -13 3 6 2 13 -4 17 -6 4 -8 10 -6 14
3 4 1 13 -5 21 -7 12 -9 12 -9 1z"/>
<path d="M6999 3986 c10 -12 8 -18 -12 -31 -14 -9 -27 -24 -30 -34 -3 -13 -12
-18 -31 -16 -14 2 -26 -1 -26 -7 0 -6 7 -8 15 -4 8 3 15 1 15 -4 0 -14 -23
-25 -45 -22 -16 2 -17 1 -5 -7 8 -6 23 -8 32 -5 12 3 17 1 15 -8 -2 -7 -2 -10
0 -5 3 4 10 4 16 0 9 -5 9 -3 0 8 -7 9 -8 20 -4 28 6 10 11 5 16 -17 3 -17 14
-37 23 -44 11 -9 14 -10 8 0 -4 6 -3 12 3 12 5 0 12 -6 14 -12 4 -10 6 -10 6
0 1 7 5 10 11 7 6 -3 7 1 4 9 -3 9 -10 16 -15 16 -5 0 -9 4 -9 9 0 4 11 6 25
3 16 -3 25 0 25 8 0 7 -7 10 -16 6 -8 -3 -13 -2 -10 3 3 5 15 11 26 14 11 3
18 1 14 -4 -3 -5 1 -9 8 -9 8 0 13 12 13 29 1 25 -3 29 -24 28 -13 -1 -26 -8
-28 -14 -3 -7 4 -10 19 -7 17 4 15 1 -7 -9 -16 -8 -31 -11 -33 -6 -4 9 -42 -1
-42 -12 0 -5 8 -6 18 -3 12 4 13 3 4 -3 -7 -5 -10 -17 -6 -26 3 -9 3 -17 0
-17 -14 0 -25 50 -16 72 5 13 9 17 9 11 1 -7 6 -13 12 -13 6 0 9 6 6 13 -2 6
2 20 11 29 15 18 10 48 -9 48 -8 0 -8 -4 0 -14z"/>
<path d="M6766 3973 c-6 -14 -5 -15 5 -6 7 7 10 15 7 18 -3 3 -9 -2 -12 -12z"/>
<path d="M7390 3979 c0 -5 5 -7 10 -4 6 3 10 8 10 11 0 2 -4 4 -10 4 -5 0 -10
-5 -10 -11z"/>
<path d="M6845 3930 c-3 -5 -1 -10 4 -10 6 0 11 5 11 10 0 6 -2 10 -4 10 -3 0
-8 -4 -11 -10z"/>
<path d="M7005 3930 c3 -5 8 -10 11 -10 2 0 4 5 4 10 0 6 -5 10 -11 10 -5 0
-7 -4 -4 -10z"/>
<path d="M7061 3854 c0 -11 3 -14 6 -6 3 7 2 16 -1 19 -3 4 -6 -2 -5 -13z"/>
<path d="M6940 3807 c0 -8 7 -17 15 -21 8 -3 15 -3 15 0 0 3 -7 12 -15 20 -13
13 -15 13 -15 1z"/>
<path d="M6992 3791 c-11 -7 -10 -10 3 -15 24 -9 35 -8 35 4 0 5 -7 6 -17 3
-11 -4 -14 -3 -9 5 8 14 6 15 -12 3z"/>
<path d="M7055 3788 c14 -8 15 -12 4 -19 -9 -6 6 -9 40 -9 58 0 66 8 13 12
-20 1 -31 7 -28 14 3 7 -6 12 -21 12 -23 0 -24 -2 -8 -10z"/>
<path d="M6459 6543 c-13 -16 -12 -17 4 -4 9 7 17 15 17 17 0 8 -8 3 -21 -13z"/>
<path d="M6369 6473 c-13 -16 -12 -17 4 -4 9 7 17 15 17 17 0 8 -8 3 -21 -13z"/>
<path d="M7570 6448 c24 -27 45 -48 47 -48 8 0 0 9 -44 50 l-48 45 45 -47z"/>
<path d="M6704 6438 l-19 -23 23 19 c21 18 27 26 19 26 -2 0 -12 -10 -23 -22z"/>
<path d="M6304 6418 l-19 -23 23 19 c21 18 27 26 19 26 -2 0 -12 -10 -23 -22z"/>
<path d="M6629 6373 l-24 -28 28 24 c15 14 27 26 27 28 0 8 -8 1 -31 -24z"/>
<path d="M6229 6333 l-24 -28 28 24 c15 14 27 26 27 28 0 8 -8 1 -31 -24z"/>
<path d="M6105 6149 c-4 -6 -5 -12 -2 -15 2 -3 7 2 10 11 7 17 1 20 -8 4z"/>
<path d="M7758 6103 c7 -3 16 -2 19 1 4 3 -2 6 -13 5 -11 0 -14 -3 -6 -6z"/>
<path d="M3256 6069 c-50 -39 -24 -109 41 -109 57 0 84 69 43 110 -26 26 -51
25 -84 -1z m88 -31 c21 -61 -62 -93 -93 -36 -14 24 -14 28 4 48 28 31 77 24
89 -12z"/>
<path d="M3290 6056 c0 -2 9 -6 20 -9 11 -3 18 -1 14 4 -5 9 -34 13 -34 5z"/>
<path d="M3260 6020 c0 -16 2 -30 4 -30 2 0 13 -3 23 -7 17 -7 17 -6 0 11 -11
11 -15 26 -12 37 4 11 2 19 -4 19 -6 0 -11 -13 -11 -30z"/>
<path d="M3316 6022 c-3 -5 1 -9 9 -9 8 0 15 4 15 9 0 4 -4 8 -9 8 -6 0 -12
-4 -15 -8z"/>
<path d="M2743 6060 c-151 -32 -262 -136 -299 -280 -21 -83 -13 -156 27 -237
37 -77 99 -133 182 -164 54 -21 78 -24 192 -23 85 0 144 6 170 15 l40 14 3
124 3 123 29 11 c17 6 30 17 30 24 0 10 -31 13 -130 13 -107 0 -130 -3 -130
-15 0 -8 15 -17 38 -21 20 -4 40 -12 44 -18 4 -6 8 -55 8 -109 0 -97 0 -98
-27 -109 -45 -17 -130 -21 -178 -8 -61 17 -127 77 -156 142 -21 47 -24 68 -24
173 0 105 3 126 24 168 51 104 148 155 277 144 87 -7 127 -33 152 -100 12 -30
27 -53 37 -55 15 -3 16 4 10 70 -4 40 -8 78 -10 85 -8 26 -232 50 -312 33z
m247 -23 l55 -12 2 -70 2 -70 -15 41 c-8 22 -25 52 -37 65 -12 13 -21 26 -20
29 2 7 -12 9 -123 16 -102 7 -148 -7 -212 -61 -103 -87 -130 -308 -55 -455 54
-105 173 -165 281 -141 26 5 54 9 62 9 36 -2 60 3 60 13 0 6 -7 8 -15 5 -41
-17 -49 -17 -27 0 20 15 22 25 22 109 0 106 -13 132 -68 143 -18 4 21 7 88 7
66 0 114 -1 108 -3 -7 -2 -20 -6 -28 -9 -8 -3 -35 -6 -60 -6 l-45 0 40 -4 40
-4 -2 -122 -2 -122 -43 -14 c-26 -8 -90 -14 -163 -14 -103 -1 -128 2 -179 22
-58 23 -146 93 -146 115 1 6 9 1 19 -11 16 -19 20 -20 25 -7 3 8 2 13 -3 10
-5 -3 -14 1 -21 9 -7 8 -16 12 -21 10 -4 -3 -18 14 -30 37 -35 66 -38 204 -6
278 13 30 28 54 34 53 6 -1 17 5 25 15 12 15 11 16 -4 3 -37 -28 -16 8 26 47
52 48 82 65 98 56 7 -4 8 -3 4 4 -21 34 213 54 334 29z"/>
<path d="M2590 5965 c-8 -9 -15 -22 -16 -29 -1 -6 -5 -20 -10 -31 -4 -11 5 -3
20 19 27 39 32 73 6 41z"/>
<path d="M2522 5720 c0 -14 2 -19 5 -12 2 6 2 18 0 25 -3 6 -5 1 -5 -13z"/>
<path d="M2460 5715 c0 -8 2 -15 4 -15 2 0 6 7 10 15 3 8 1 15 -4 15 -6 0 -10
-7 -10 -15z"/>
<path d="M3022 5610 c0 -14 2 -19 5 -12 2 6 2 18 0 25 -3 6 -5 1 -5 -13z"/>
<path d="M2471 5610 c0 -15 38 -91 39 -79 0 4 -9 26 -20 50 -11 24 -19 37 -19
29z"/>
<path d="M2984 5515 c0 -55 1 -76 3 -47 2 29 2 74 0 100 -2 26 -3 2 -3 -53z"/>
<path d="M2526 5583 c5 -5 12 -12 16 -18 4 -6 8 -2 8 8 0 9 -7 17 -17 17 -9 0
-12 -3 -7 -7z"/>
<path d="M2556 5537 c3 -10 9 -15 12 -12 3 3 0 11 -7 18 -10 9 -11 8 -5 -6z"/>
<path d="M2570 5450 c14 -10 27 -17 29 -14 6 5 -31 33 -44 33 -5 1 1 -8 15
-19z"/>
<path d="M3021 5454 c0 -11 3 -14 6 -6 3 7 2 16 -1 19 -3 4 -6 -2 -5 -13z"/>
<path d="M2630 5416 c0 -2 9 -6 20 -9 11 -3 18 -1 14 4 -5 9 -34 13 -34 5z"/>
<path d="M3008 5403 c7 -3 16 -2 19 1 4 3 -2 6 -13 5 -11 0 -14 -3 -6 -6z"/>
<path d="M3268 5836 c-50 -12 -78 -24 -78 -32 0 -8 6 -14 14 -14 8 0 22 -7 30
-16 13 -13 16 -44 16 -182 0 -92 -4 -173 -9 -180 -4 -7 -21 -16 -36 -20 -16
-5 -30 -13 -33 -20 -3 -9 30 -12 128 -12 98 0 131 3 128 12 -3 7 -19 16 -36
20 -18 5 -33 10 -34 11 -1 1 -5 103 -8 227 l-5 225 -77 -19z m67 -183 c0 -104
3 -205 7 -226 5 -26 3 -35 -4 -31 -7 4 -8 2 -4 -5 4 -6 11 -9 15 -7 4 3 21 1
37 -4 20 -6 -8 -8 -91 -8 -66 1 -105 3 -87 5 54 7 64 45 60 229 -3 132 -5 155
-22 173 -11 12 -26 21 -35 22 -12 1 83 31 119 38 3 1 5 -83 5 -186z"/>
<path d="M3290 5810 c0 -5 7 -7 15 -4 8 4 15 8 15 10 0 2 -7 4 -15 4 -8 0 -15
-4 -15 -10z"/>
<path d="M3312 5715 c0 -16 2 -22 5 -12 2 9 2 23 0 30 -3 6 -5 -1 -5 -18z"/>
<path d="M3312 5655 c0 -16 2 -22 5 -12 2 9 2 23 0 30 -3 6 -5 -1 -5 -18z"/>
<path d="M3280 5538 c0 -61 3 -109 6 -105 9 9 10 217 2 217 -5 0 -8 -50 -8
-112z"/>
<path d="M3310 5462 c0 -22 4 -43 9 -46 5 -4 7 12 4 36 -8 57 -13 61 -13 10z"/>
<path d="M3270 5400 c0 -11 39 -20 45 -10 3 4 -6 10 -20 12 -14 3 -25 2 -25
-2z"/>
<path d="M3736 5841 c-26 -11 -56 -27 -65 -35 -25 -23 -31 -20 -31 15 0 27 -3
30 -23 25 -12 -3 -46 -10 -75 -16 -28 -7 -52 -16 -52 -21 0 -4 13 -15 29 -24
25 -13 30 -22 36 -67 10 -82 0 -295 -14 -312 -7 -8 -24 -16 -38 -18 -15 -2
-28 -9 -31 -15 -3 -10 26 -13 122 -13 105 0 126 2 126 15 0 9 -9 15 -25 15
-14 0 -29 8 -35 19 -6 11 -10 89 -10 181 l0 161 43 19 c59 27 109 26 144 -4
l28 -24 0 -169 0 -168 -37 -9 c-21 -5 -38 -15 -38 -23 0 -10 27 -13 119 -13
121 0 157 11 104 31 -15 5 -31 16 -35 22 -4 7 -8 83 -8 170 0 171 -7 203 -54
246 -36 33 -113 38 -180 12z m158 -11 c8 -9 5 -11 -14 -5 -19 5 -21 4 -10 -4
8 -6 23 -8 32 -5 35 11 47 -42 51 -223 2 -92 7 -176 11 -185 4 -9 20 -21 34
-27 20 -7 -2 -9 -88 -9 -63 1 -103 3 -88 5 15 2 37 16 49 31 19 25 21 37 17
167 -3 115 -7 146 -23 175 -10 19 -19 38 -20 42 0 3 -4 10 -9 15 -5 5 -6 2 -1
-6 6 -10 2 -11 -16 -5 -36 13 -83 8 -133 -15 l-46 -20 -2 -98 c-4 -250 0 -278
49 -286 16 -2 -24 -4 -87 -4 -63 0 -103 2 -88 4 52 8 58 31 58 211 l0 164 -28
28 -29 28 59 15 58 15 1 -27 c1 -14 0 -32 -1 -40 -1 -9 12 -4 37 15 74 56 193
79 227 44z"/>
<path d="M3795 5830 c-30 -8 -30 -8 8 -9 23 -1 36 3 32 9 -3 6 -7 9 -8 9 -1
-1 -15 -5 -32 -9z"/>
<path d="M3571 5809 c-20 -8 -21 -12 -10 -25 7 -9 16 -34 20 -57 l8 -42 -2 48
c-1 26 1 47 5 47 5 0 8 -6 8 -12 0 -9 4 -8 10 2 15 24 12 27 -22 23 l-33 -3
35 14 c19 8 28 15 20 15 -8 0 -26 -5 -39 -10z"/>
<path d="M3867 5783 c-2 -5 4 -21 14 -38 11 -16 19 -25 19 -20 0 6 -7 20 -15
31 -8 12 -11 24 -8 28 3 3 4 6 0 6 -3 0 -8 -3 -10 -7z"/>
<path d="M3927 5730 c-3 -11 -1 -23 4 -26 5 -3 9 6 9 20 0 31 -6 34 -13 6z"/>
<path d="M3900 5575 c0 -76 3 -135 8 -131 7 8 4 257 -4 265 -2 2 -4 -58 -4
-134z"/>
<path d="M3580 5550 c0 -73 2 -131 5 -128 8 7 9 247 2 254 -4 4 -7 -53 -7
-126z"/>
<path d="M3931 5644 c0 -11 3 -14 6 -6 3 7 2 16 -1 19 -3 4 -6 -2 -5 -13z"/>
<path d="M3934 5515 c0 -49 1 -71 3 -48 2 23 2 64 0 90 -2 26 -3 8 -3 -42z"/>
<path d="M3617 5419 c4 -13 8 -18 11 -10 2 7 -1 18 -6 23 -8 8 -9 4 -5 -13z"/>
<path d="M3940 5411 c0 -5 -10 -12 -22 -14 -17 -3 -14 -5 9 -6 25 -1 31 2 27
14 -7 17 -14 20 -14 6z"/>
<path d="M4223 5846 c-22 -8 -55 -23 -72 -35 -26 -19 -31 -29 -31 -62 0 -21 3
-39 8 -39 4 0 17 -3 28 -6 18 -5 22 0 28 29 12 64 72 98 130 73 41 -17 56 -47
56 -110 l0 -43 -85 -28 c-107 -34 -170 -74 -192 -120 -15 -32 -16 -40 -3 -77
8 -23 27 -50 42 -62 51 -37 153 -20 215 37 l22 20 10 -26 c22 -57 105 -74 152
-31 25 23 26 59 2 49 -10 -4 -22 -9 -28 -11 -5 -2 -17 0 -25 6 -12 7 -16 45
-20 198 -4 148 -8 193 -20 207 -36 43 -133 57 -217 31z m187 -25 c34 -25 38
-45 39 -226 1 -186 9 -212 65 -201 l31 6 -21 -21 c-31 -30 -127 -28 -108 3 4
7 2 8 -5 4 -13 -8 -32 33 -23 49 4 6 -7 1 -23 -9 -88 -58 -115 -69 -168 -63
-63 6 -97 39 -97 95 0 69 50 108 197 156 l81 27 4 69 c2 42 -1 68 -7 67 -5 -1
-9 6 -8 16 0 10 -1 16 -4 13 -3 -3 -18 1 -34 9 -36 19 -79 19 -105 0 -12 -8
-25 -11 -29 -7 -3 4 -6 3 -5 -3 5 -22 -1 -29 -11 -15 -9 12 -10 12 -5 -3 10
-30 -4 -67 -25 -67 -14 0 -19 7 -19 28 0 46 50 80 134 92 66 9 115 2 146 -19z"/>
<path d="M4343 5823 c4 -3 19 -8 34 -9 21 -2 24 -1 13 6 -17 11 -57 14 -47 3z"/>
<path d="M4414 5781 c1 -17 4 -31 9 -31 10 0 9 32 -2 48 -5 9 -8 3 -7 -17z"/>
<path d="M4147 5773 c-9 -9 -9 -43 1 -43 4 0 7 11 7 25 0 14 0 25 -1 25 0 0
-4 -3 -7 -7z"/>
<path d="M4390 5750 c0 -8 5 -22 10 -30 9 -13 10 -13 10 0 0 8 -5 22 -10 30
-9 13 -10 13 -10 0z"/>
<path d="M4390 5658 c-12 -25 -26 -34 -72 -48 -31 -10 -72 -27 -91 -39 -18
-11 -36 -19 -38 -16 -3 2 -18 -7 -34 -21 l-30 -26 33 22 c35 24 36 23 22 -15
-13 -33 9 -88 41 -105 30 -16 91 -7 129 20 31 22 31 23 29 105 -1 66 2 87 15
100 9 9 16 25 16 36 0 26 -2 24 -20 -13z m-20 -126 l0 -78 -44 -22 c-54 -27
-76 -28 -110 -1 -26 20 -34 57 -20 93 10 27 116 81 167 85 4 1 7 -34 7 -77z"/>
<path d="M4427 5647 c-3 -8 -1 -20 4 -28 6 -10 9 -7 9 14 0 29 -5 35 -13 14z"/>
<path d="M4111 5484 c0 -11 3 -14 6 -6 3 7 2 16 -1 19 -3 4 -6 -2 -5 -13z"/>
<path d="M4396 5475 c-3 -8 -1 -15 4 -15 6 0 10 7 10 15 0 8 -2 15 -4 15 -2 0
-6 -7 -10 -15z"/>
<path d="M4110 5450 c0 -17 17 -47 23 -40 2 3 -2 16 -10 30 -7 14 -13 18 -13
10z"/>
<path d="M4155 5450 c3 -5 8 -10 11 -10 2 0 4 5 4 10 0 6 -5 10 -11 10 -5 0
-7 -4 -4 -10z"/>
<path d="M4430 5441 c0 -11 4 -22 9 -25 4 -3 6 6 3 19 -5 30 -12 33 -12 6z"/>
<path d="M4405 5439 c-4 -6 -5 -12 -2 -15 2 -3 7 2 10 11 7 17 1 20 -8 4z"/>
<path d="M4197 5399 c7 -7 15 -10 18 -7 3 3 -2 9 -12 12 -14 6 -15 5 -6 -5z"/>
<path d="M4453 5393 c4 -7 0 -13 -10 -16 -10 -3 -3 -5 16 -6 19 0 32 0 30 2
-2 1 -13 9 -23 17 -11 8 -17 10 -13 3z"/>
<path d="M4225 5380 c-16 -7 -17 -9 -3 -9 9 -1 20 4 23 9 7 11 7 11 -20 0z"/>
<path d="M2571 5194 c-12 -15 -21 -32 -21 -39 0 -23 41 -65 64 -65 37 0 66 28
66 64 0 64 -70 90 -109 40z m80 6 c22 -12 26 -59 7 -78 -7 -7 -24 -12 -38 -12
-34 0 -50 17 -50 52 0 20 7 31 23 38 30 12 35 12 58 0z"/>
<path d="M2585 5179 c-4 -6 -4 -13 -1 -16 3 -4 6 -1 6 5 0 6 8 13 18 15 15 4
15 5 0 6 -9 0 -20 -4 -23 -10z"/>
<path d="M2646 5164 c6 -23 4 -26 -10 -21 -10 4 -15 3 -11 -3 8 -13 -1 -13
-27 1 -16 9 -19 8 -16 -3 6 -18 46 -23 64 -8 16 14 19 46 4 55 -7 4 -8 -3 -4
-21z"/>
<path d="M1914 5178 c-9 -14 7 -28 30 -28 48 0 51 -14 54 -304 3 -300 0 -314
-56 -331 -65 -19 -26 -30 116 -33 120 -2 142 0 142 12 0 9 -14 18 -35 22 -21
4 -40 15 -47 28 -6 11 -14 69 -16 129 l-5 107 80 0 c89 0 156 16 203 50 87 62
95 214 16 298 -48 52 -102 62 -304 59 -96 -1 -176 -5 -178 -9z m447 -36 c49
-30 73 -82 73 -157 0 -62 -26 -131 -45 -120 -5 4 -8 1 -7 -7 6 -27 -84 -59
-188 -66 l-99 -7 -3 -102 c-3 -129 10 -167 63 -179 27 -7 3 -9 -93 -9 -107 0
-124 2 -101 12 15 6 32 20 38 32 7 13 11 116 11 293 0 299 -3 318 -55 330 -17
3 60 6 170 5 189 -2 202 -3 236 -25z"/>
<path d="M2010 5134 c6 -14 11 -71 11 -127 1 -69 4 -92 9 -72 4 17 8 24 9 16
0 -8 4 -11 7 -8 4 4 2 12 -3 19 -6 7 -11 42 -12 78 -1 36 -3 74 -5 85 -2 13 4
22 18 27 17 5 14 6 -11 7 -31 1 -32 0 -23 -25z"/>
<path d="M2103 5148 c-4 -7 -10 -88 -13 -179 l-5 -166 45 4 c82 6 155 11 175
12 17 1 17 3 5 11 -9 6 -18 6 -24 0 -6 -6 -15 -10 -20 -10 -6 0 -2 7 8 15 10
8 22 12 26 10 4 -3 16 5 26 17 11 12 13 18 7 14 -17 -9 -16 3 2 34 19 33 19
128 0 164 -9 16 -13 31 -11 33 6 7 26 -32 41 -81 l12 -41 -1 37 c0 21 -3 38
-6 38 -3 0 -11 14 -18 30 -9 19 -20 29 -30 28 -10 -2 -16 3 -14 11 5 22 -10
26 -106 29 -66 2 -92 0 -99 -10z m175 -25 c56 -41 78 -141 47 -207 -29 -61
-74 -88 -155 -94 l-70 -5 0 135 c0 75 3 150 6 168 l7 32 69 -4 c48 -4 78 -12
96 -25z m17 17 c3 -5 2 -10 -4 -10 -5 0 -13 5 -16 10 -3 6 -2 10 4 10 5 0 13
-4 16 -10z"/>
<path d="M2327 5139 c7 -7 15 -10 18 -7 3 3 -2 9 -12 12 -14 6 -15 5 -6 -5z"/>
<path d="M2360 5123 c0 -7 4 -13 10 -13 5 0 16 -12 24 -27 8 -16 15 -23 16
-16 0 7 -11 25 -25 40 -13 15 -25 22 -25 16z"/>
<path d="M2412 5030 c0 -14 2 -19 5 -12 2 6 2 18 0 25 -3 6 -5 1 -5 -13z"/>
<path d="M2406 4929 c-8 -42 0 -50 9 -9 4 17 5 34 2 36 -2 3 -7 -10 -11 -27z"/>
<path d="M2021 4884 c0 -11 3 -14 6 -6 3 7 2 16 -1 19 -3 4 -6 -2 -5 -13z"/>
<path d="M2021 4848 c-1 -20 14 -24 25 -6 4 6 3 8 -4 4 -5 -3 -13 0 -15 6 -3
8 -6 6 -6 -4z"/>
<path d="M2057 4825 c-4 -8 -2 -17 2 -20 5 -2 11 4 14 15 6 23 -8 27 -16 5z"/>
<path d="M2030 4811 c0 -6 4 -13 10 -16 6 -3 7 1 4 9 -7 18 -14 21 -14 7z"/>
<path d="M2072 4620 c0 -14 2 -19 5 -12 2 6 2 18 0 25 -3 6 -5 1 -5 -13z"/>
<path d="M2020 4580 c0 -22 0 -43 1 -47 0 -4 -8 -10 -18 -14 -11 -5 2 -7 32
-7 39 0 44 2 20 7 -28 6 -29 8 -26 54 1 26 0 47 -3 47 -3 0 -6 -18 -6 -40z"/>
<path d="M2071 4570 c0 -25 19 -60 34 -60 4 0 2 6 -4 14 -7 8 -16 27 -21 43
-8 27 -8 27 -9 3z"/>
<path d="M2610 4975 c-25 -7 -57 -16 -72 -19 -35 -8 -36 -21 -1 -38 36 -17 41
-39 42 -205 1 -168 -4 -188 -54 -197 -22 -4 -35 -12 -32 -19 5 -17 249 -17
254 0 2 6 -10 14 -27 18 -20 4 -34 15 -41 32 -5 13 -9 119 -9 234 0 115 -3
209 -7 208 -5 -1 -28 -7 -53 -14z m50 -209 c0 -113 4 -216 10 -230 6 -16 20
-28 40 -33 20 -5 -9 -8 -84 -8 -63 0 -109 3 -102 7 6 4 19 8 28 8 31 0 38 35
38 205 0 136 -3 170 -16 190 -9 14 -23 25 -32 25 -28 0 -5 12 50 25 29 7 56
13 61 14 4 1 7 -91 7 -203z"/>
<path d="M2595 4940 c-13 -5 -14 -9 -5 -9 8 0 24 4 35 9 13 5 14 9 5 9 -8 0
-24 -4 -35 -9z"/>
<path d="M2598 4737 c3 -132 7 -176 18 -188 24 -27 40 -19 36 18 -2 18 -7 33
-11 33 -4 0 -5 -15 -3 -32 5 -30 3 -32 -12 -19 -14 11 -16 37 -16 175 0 88 -4
166 -8 173 -4 6 -6 -66 -4 -160z"/>
<path d="M2620 4811 c0 -6 4 -13 10 -16 6 -3 7 1 4 9 -7 18 -14 21 -14 7z"/>
<path d="M2597 4533 c-14 -13 -7 -23 16 -22 17 1 18 2 4 6 -9 2 -15 9 -12 14
7 10 1 12 -8 2z"/>
<path d="M2648 4513 c7 -3 16 -2 19 1 4 3 -2 6 -13 5 -11 0 -14 -3 -6 -6z"/>
<path d="M3402 4972 c-69 -25 -102 -56 -102 -98 0 -51 54 -63 65 -15 17 77
108 109 160 56 21 -20 25 -34 25 -85 0 -50 -3 -60 -17 -60 -31 -1 -154 -48
-194 -75 -74 -49 -88 -133 -33 -189 48 -47 131 -43 210 10 28 19 39 23 43 13
2 -7 15 -24 28 -37 21 -21 31 -24 69 -19 50 5 74 21 74 48 0 16 -5 18 -25 13
-50 -12 -55 4 -55 183 0 179 -9 219 -54 248 -39 26 -131 29 -194 7z m181 -13
c14 -6 30 -21 36 -33 6 -12 12 -98 13 -199 3 -175 4 -179 27 -198 16 -13 31
-17 45 -13 18 6 19 5 8 -8 -17 -21 -66 -30 -97 -18 -13 5 -31 23 -40 40 -15
29 -18 30 -33 17 -38 -33 -102 -57 -152 -57 -42 0 -55 5 -75 26 -29 32 -34 97
-10 132 22 31 87 66 183 97 l82 27 0 44 c0 95 -57 155 -131 139 -36 -8 -76
-49 -84 -87 -7 -31 -7 -31 -29 -22 -42 16 -5 78 64 108 41 18 158 21 193 5z"/>
<path d="M3584 4935 c8 -8 18 -15 22 -15 3 0 1 7 -6 15 -7 8 -17 15 -22 15 -5
0 -3 -7 6 -15z"/>
<path d="M3350 4920 c-20 -15 -23 -21 -12 -31 10 -11 12 -10 12 1 0 7 7 22 17
32 21 23 15 23 -17 -2z"/>
<path d="M3566 4907 c3 -10 9 -15 12 -12 3 3 0 11 -7 18 -10 9 -11 8 -5 -6z"/>
<path d="M3611 4884 c0 -11 3 -14 6 -6 3 7 2 16 -1 19 -3 4 -6 -2 -5 -13z"/>
<path d="M3581 4828 c1 -55 5 -50 11 15 2 20 0 37 -4 37 -4 0 -7 -24 -7 -52z"/>
<path d="M3613 4790 c0 -30 2 -43 4 -27 2 15 2 39 0 55 -2 15 -4 2 -4 -28z"/>
<path d="M3481 4730 c-29 -11 -59 -24 -66 -30 -7 -6 -23 -13 -36 -15 -13 -3
-35 -17 -49 -32 -14 -15 -17 -21 -8 -14 14 10 17 9 21 -11 3 -18 5 -16 6 8 0
18 8 34 16 38 17 6 21 -9 5 -19 -5 -3 -10 -21 -10 -39 0 -37 37 -85 67 -87 41
-3 70 4 101 23 17 11 32 17 32 13 0 -3 7 -2 16 3 12 7 16 27 17 89 1 45 -1 79
-5 76 -5 -2 -8 -37 -8 -78 0 -41 -3 -76 -7 -78 -5 -3 -8 34 -8 81 0 100 -1
101 -84 72z m69 -69 c0 -74 -1 -80 -27 -96 -15 -10 -45 -20 -67 -22 -33 -4
-45 -1 -61 16 -26 29 -25 85 1 112 16 15 118 61 152 68 1 1 2 -34 2 -78z"/>
<path d="M3613 4660 c0 -41 2 -58 4 -37 2 20 2 54 0 75 -2 20 -4 3 -4 -38z"/>
<path d="M3301 4588 c-1 -16 4 -28 9 -28 12 0 12 8 0 35 -8 18 -9 17 -9 -7z"/>
<path d="M3340 4586 c0 -8 4 -17 9 -20 5 -4 7 3 4 14 -6 23 -13 26 -13 6z"/>
<path d="M3617 4543 c5 -12 2 -15 -10 -10 -9 3 -17 3 -17 -1 0 -15 24 -32 45
-31 17 1 16 2 -5 9 -21 6 -22 8 -8 14 16 8 14 36 -3 36 -4 0 -5 -8 -2 -17z"/>
<path d="M3310 4544 c0 -17 27 -37 34 -25 4 5 2 12 -4 16 -5 3 -10 3 -10 -2 0
-4 -5 -1 -10 7 -5 8 -10 10 -10 4z"/>
<path d="M3370 4526 c0 -2 9 -6 20 -9 11 -3 18 -1 14 4 -5 9 -34 13 -34 5z"/>
<path d="M3358 4503 c6 -2 18 -2 25 0 6 3 1 5 -13 5 -14 0 -19 -2 -12 -5z"/>
<path d="M3833 4967 c-40 -11 -73 -24 -73 -29 0 -5 11 -13 25 -18 38 -15 45
-47 45 -219 0 -169 -1 -173 -53 -186 -15 -4 -27 -14 -27 -21 0 -12 23 -14 132
-12 88 2 133 7 135 15 2 6 -13 14 -37 18 -55 9 -60 26 -60 189 0 146 0 146 68
180 22 11 44 15 67 10 32 -6 34 -4 43 27 25 91 -51 94 -145 6 l-33 -31 0 41
c0 23 -3 43 -7 46 -5 2 -41 -6 -80 -16z m253 -2 c4 -8 4 -25 0 -38 -5 -20 -11
-22 -39 -19 -37 4 -85 -16 -118 -49 -17 -17 -19 -34 -19 -167 0 -163 4 -175
58 -189 22 -5 -6 -8 -88 -8 -94 0 -113 2 -89 10 16 6 34 17 39 25 5 8 10 92
10 186 0 176 -3 190 -44 211 -15 8 -10 12 30 22 27 7 56 14 64 16 11 4 15 -4
17 -25 5 -91 2 -88 41 -40 58 69 125 100 138 65z"/>
<path d="M4041 4961 c-9 -6 -10 -11 -2 -15 6 -4 11 -2 11 4 0 7 7 10 15 6 8
-3 15 -1 15 4 0 12 -20 13 -39 1z"/>
<path d="M3869 4941 c7 -5 10 -14 7 -20 -4 -6 -2 -11 3 -11 6 0 11 9 11 20 0
12 -7 20 -17 20 -14 0 -15 -2 -4 -9z"/>
<path d="M3990 4927 c-14 -12 -21 -19 -16 -14 6 4 21 7 36 8 14 0 19 3 12 6
-6 2 -10 9 -6 14 9 15 1 10 -26 -14z"/>
<path d="M3818 4933 c7 -3 16 -2 19 1 4 3 -2 6 -13 5 -11 0 -14 -3 -6 -6z"/>
<path d="M3852 4880 c0 -14 2 -19 5 -12 2 6 2 18 0 25 -3 6 -5 1 -5 -13z"/>
<path d="M3891 4794 c0 -11 3 -14 6 -6 3 7 2 16 -1 19 -3 4 -6 -2 -5 -13z"/>
<path d="M3890 4665 c-3 -83 -1 -118 8 -127 4 -4 6 25 4 65 -4 114 -9 138 -12
62z"/>
<path d="M3852 4560 c0 -14 2 -19 5 -12 2 6 2 18 0 25 -3 6 -5 1 -5 -13z"/>
<path d="M3834 4518 c-3 -4 13 -8 35 -8 23 0 41 2 41 4 0 8 -71 12 -76 4z"/>
<path d="M4203 4967 c-73 -20 -88 -32 -55 -44 50 -18 52 -25 52 -209 0 -184 1
-180 -53 -199 -59 -21 -27 -30 103 -30 132 0 170 11 97 29 -25 7 -39 16 -43
30 -2 12 -3 84 -2 160 l3 139 28 21 c16 12 50 23 80 26 48 5 52 7 61 37 6 23
5 37 -4 48 -26 32 -80 13 -152 -53 l-28 -26 0 47 c0 26 -3 46 -7 46 -5 -1 -41
-11 -80 -22z m252 -27 c0 -34 -1 -35 -33 -32 -37 4 -115 -36 -132 -68 -15 -28
-13 -269 3 -300 7 -14 26 -29 43 -35 24 -8 5 -10 -87 -10 -92 0 -112 2 -89 10
54 18 55 22 55 209 0 157 -2 176 -19 195 -11 12 -26 21 -35 22 -19 1 40 23 87
34 31 6 32 6 32 -29 0 -26 6 -38 21 -47 12 -6 19 -7 16 -2 -8 12 37 56 78 77
44 23 60 17 60 -24z"/>
<path d="M4438 4943 c5 -21 7 -23 10 -9 2 10 0 22 -6 28 -6 6 -7 0 -4 -19z"/>
<path d="M4362 4928 c-23 -17 -40 -33 -38 -35 6 -6 51 21 74 45 32 32 12 27
-36 -10z"/>
<path d="M4215 4940 c-4 -6 -10 -8 -15 -5 -6 3 -2 -8 8 -24 9 -17 19 -26 20
-20 2 5 -2 16 -8 24 -10 12 -9 15 3 15 9 0 19 5 22 10 3 6 -1 10 -9 10 -8 0
-18 -5 -21 -10z"/>
<path d="M4260 4902 c0 -6 5 -14 10 -17 6 -3 10 -11 10 -16 0 -6 -4 -8 -9 -5
-5 3 -8 -43 -8 -107 l1 -112 3 95 c3 62 9 100 18 110 11 13 11 18 -6 39 -10
13 -19 18 -19 13z"/>
<path d="M4230 4816 c0 -25 4 -47 10 -51 5 -3 8 14 7 45 -2 62 -17 67 -17 6z"/>
<path d="M4230 4700 c0 -5 5 -10 11 -10 5 0 7 5 4 10 -3 6 -8 10 -11 10 -2 0
-4 -4 -4 -10z"/>
<path d="M4260 4594 c0 -21 4 -45 9 -53 5 -8 7 5 4 35 -7 61 -13 70 -13 18z"/>
<path d="M4217 4535 c-4 -8 -3 -16 1 -19 4 -3 9 4 9 15 2 23 -3 25 -10 4z"/>
<path d="M4240 4525 c0 -8 8 -15 18 -14 10 0 12 3 4 6 -6 2 -10 9 -6 14 3 5 0
9 -5 9 -6 0 -11 -7 -11 -15z"/>
<path d="M4687 4976 c-93 -34 -153 -118 -164 -229 -10 -118 28 -195 122 -242
49 -25 71 -29 130 -29 83 1 134 23 187 82 47 52 63 101 62 192 0 113 -39 176
-134 219 -53 24 -146 27 -203 7z m197 -18 c14 -6 23 -15 19 -21 -3 -6 -1 -7 6
-3 14 9 43 -12 35 -25 -3 -5 0 -8 8 -7 7 2 23 -18 36 -44 35 -70 33 -173 -5
-247 -39 -77 -100 -114 -195 -119 -158 -9 -249 72 -250 224 0 99 36 180 99
221 61 40 183 51 247 21z"/>
<path d="M4735 4960 c-51 -12 -72 -28 -94 -75 -39 -84 -37 -219 5 -299 11 -23
12 -31 2 -37 -19 -12 -41 10 -27 27 8 9 7 18 -1 31 -10 16 -10 16 -5 -4 3 -12
1 -24 -4 -27 -14 -9 -37 31 -46 78 -3 21 -8 36 -11 33 -3 -2 0 -24 5 -47 12
-55 72 -120 94 -102 11 10 17 9 26 -1 6 -8 9 -16 6 -18 -2 -3 4 -6 13 -7 9 -1
38 -5 64 -8 33 -4 57 -1 79 10 17 9 35 13 40 11 4 -3 11 0 15 6 4 8 3 9 -4 5
-17 -11 -15 9 3 24 12 10 15 10 15 -1 0 -12 2 -12 9 -1 4 8 12 13 17 12 5 -1
16 9 24 22 14 21 14 22 -3 9 -14 -11 -17 -11 -17 0 -1 8 -8 3 -16 -11 -11 -18
-13 -19 -9 -5 40 127 22 284 -39 334 -13 11 -14 16 -4 24 9 6 8 7 -5 3 -10 -3
-26 -2 -35 3 -29 14 -66 19 -97 11z m106 -33 c56 -37 79 -96 79 -202 0 -74 -4
-99 -22 -135 -54 -107 -188 -103 -243 6 -16 32 -20 59 -20 144 0 155 34 210
131 210 26 0 53 -8 75 -23z"/>
<path d="M4621 4909 c-13 -11 -22 -22 -19 -24 2 -3 15 6 28 20 28 30 24 32 -9
4z"/>
<path d="M4946 4882 c-3 -5 1 -9 9 -9 8 0 12 4 9 9 -3 4 -7 8 -9 8 -2 0 -6 -4
-9 -8z"/>
<path d="M4574 4847 c-3 -10 -3 -21 0 -24 3 -4 6 1 6 10 0 10 8 17 20 17 11 0
20 4 20 8 0 16 -40 7 -46 -11z"/>
<path d="M4977 4840 c4 -14 7 -33 7 -42 0 -10 4 -18 8 -18 12 0 9 21 -7 55
-12 24 -13 25 -8 5z"/>
<path d="M4595 4830 c-3 -5 -1 -10 4 -10 6 0 11 5 11 10 0 6 -2 10 -4 10 -3 0
-8 -4 -11 -10z"/>
<path d="M4943 4825 c-3 -9 -3 -18 -1 -21 3 -3 8 4 11 16 6 23 -1 27 -10 5z"/>
<path d="M4550 4754 c0 -19 4 -33 8 -30 8 5 4 66 -4 66 -2 0 -4 -16 -4 -36z"/>
<path d="M4992 4735 c-1 -22 -6 -56 -12 -74 -5 -19 -8 -37 -5 -39 8 -9 26 81
22 116 l-4 37 -1 -40z"/>
<path d="M4592 4725 c0 -16 2 -22 5 -12 2 9 2 23 0 30 -3 6 -5 -1 -5 -18z"/>
<path d="M4952 4690 c0 -19 2 -27 5 -17 2 9 2 25 0 35 -3 9 -5 1 -5 -18z"/>
<path d="M4941 4634 c0 -11 3 -14 6 -6 3 7 2 16 -1 19 -3 4 -6 -2 -5 -13z"/>
<path d="M2830 4913 c0 -70 12 -80 34 -29 8 19 22 36 33 39 29 8 173 19 173
13 0 -3 -65 -103 -144 -223 -79 -120 -140 -221 -137 -226 4 -4 97 -6 207 -5
l199 3 3 68 c2 37 -1 67 -5 67 -5 0 -17 -16 -28 -36 -10 -19 -28 -40 -38 -46
-21 -11 -217 -25 -217 -15 0 3 17 32 39 64 87 132 231 353 240 372 11 19 7 20
-174 18 l-185 -2 0 -62z m329 20 c-13 -21 -49 -76 -79 -123 -143 -217 -181
-280 -175 -290 9 -14 172 -12 214 3 21 8 41 25 53 47 l20 35 -6 -40 c-3 -22
-6 -47 -6 -55 0 -13 -26 -15 -190 -12 l-190 3 36 54 c20 30 40 52 44 50 4 -3
14 3 21 13 13 15 12 16 -3 3 -22 -17 -23 -8 -2 24 9 14 20 23 24 20 5 -3 12 0
16 6 4 8 3 9 -4 5 -21 -13 -13 3 64 118 70 106 78 114 104 110 19 -4 29 0 34
12 5 14 4 15 -9 4 -12 -10 -15 -10 -15 0 0 10 -3 10 -15 0 -13 -10 -15 -9 -15
9 0 20 -5 21 -75 21 -43 0 -90 -6 -110 -14 -18 -8 -37 -11 -41 -8 -4 4 -4 2
-1 -5 4 -6 3 -22 -2 -35 -8 -19 -10 -15 -10 24 l-1 47 158 4 c86 1 163 4 170
5 9 1 6 -11 -9 -35z"/>
<path d="M2858 4943 c7 -3 16 -2 19 1 4 3 -2 6 -13 5 -11 0 -14 -3 -6 -6z"/>
<path d="M3098 4943 c7 -3 16 -2 19 1 4 3 -2 6 -13 5 -11 0 -14 -3 -6 -6z"/>
<path d="M3028 4823 c-77 -118 -83 -127 -71 -120 6 4 14 3 18 -3 3 -5 1 -10
-4 -10 -6 0 -11 -7 -11 -17 0 -9 -10 -30 -23 -47 -31 -41 -39 -56 -32 -56 7 0
93 133 97 151 2 8 9 19 17 25 10 8 11 13 3 18 -7 4 -12 12 -12 18 0 7 5 6 14
-1 12 -10 22 -1 56 48 22 34 36 61 31 61 -5 0 -13 -9 -16 -20 -4 -11 -11 -18
-16 -14 -6 3 -8 12 -5 20 10 27 -2 13 -46 -53z m39 7 c-11 -19 -27 -27 -27
-14 0 15 22 44 30 39 6 -4 5 -14 -3 -25z m-17 -34 c0 -11 -19 -15 -25 -6 -3 5
1 10 9 10 9 0 16 -2 16 -4z m-53 -61 c0 -8 -4 -15 -9 -15 -5 0 -6 -6 -2 -12 5
-10 4 -10 -6 -1 -11 10 -11 15 0 28 15 19 17 19 17 0z"/>
<path d="M2846 4548 c-19 -27 -12 -38 22 -37 l27 1 -30 8 c-16 4 -24 8 -16 9
8 0 11 4 8 8 -4 3 -2 12 4 20 6 7 9 13 6 13 -3 0 -13 -10 -21 -22z"/>
<path d="M2885 4549 c-4 -6 -5 -12 -2 -15 2 -3 7 2 10 11 7 17 1 20 -8 4z"/>
<path d="M3138 4513 c6 -2 18 -2 25 0 6 3 1 5 -13 5 -14 0 -19 -2 -12 -5z"/>
<path d="M6230 4725 c13 -14 26 -25 28 -25 3 0 -5 11 -18 25 -13 14 -26 25
-28 25 -3 0 5 -11 18 -25z"/>
<path d="M6635 4710 c10 -11 20 -20 23 -20 3 0 -3 9 -13 20 -10 11 -20 20 -23
20 -3 0 3 -9 13 -20z"/>
<path d="M6330 4625 c13 -14 26 -25 28 -25 3 0 -5 11 -18 25 -13 14 -26 25
-28 25 -3 0 5 -11 18 -25z"/>
<path d="M7819 4473 l-24 -28 28 24 c25 23 32 31 24 31 -2 0 -14 -12 -28 -27z"/>
<path d="M2955 4336 c-44 -13 -78 -27 -75 -32 2 -5 18 -18 35 -29 17 -12 33
-33 36 -50 4 -17 7 -173 8 -347 0 -175 4 -318 9 -318 4 0 18 9 31 19 19 15 31
17 55 10 127 -38 264 19 323 135 31 61 42 172 23 230 -25 76 -103 135 -181
136 -45 0 -124 -26 -141 -47 -7 -9 -8 -14 -3 -12 74 35 97 41 141 41 50 0 106
-20 120 -43 3 -6 -5 -3 -20 6 -15 10 -29 15 -32 12 -3 -3 4 -8 15 -12 12 -3
21 -11 21 -16 0 -5 8 -9 17 -7 10 2 24 -11 37 -32 28 -46 29 -155 2 -223 -19
-51 -35 -59 -18 -9 7 20 7 33 0 40 -13 13 0 54 14 46 7 -4 8 -2 4 4 -4 7 -2
12 3 12 6 0 11 10 11 23 0 22 -1 22 -13 -3 -8 -14 -18 -24 -23 -23 -11 2 -18
-40 -17 -102 0 -22 -2 -32 -5 -22 -3 16 -6 15 -18 -8 -19 -37 -18 -40 11 -21
14 9 25 12 25 7 0 -12 -22 -27 -40 -26 -17 1 -17 9 5 85 23 85 4 170 -54 234
l-26 30 27 -17 c19 -12 29 -14 34 -5 4 6 3 8 -4 4 -6 -3 -13 -2 -17 4 -3 5
-15 15 -27 21 -16 9 -19 8 -13 -2 6 -9 3 -10 -11 -4 -37 16 -91 17 -128 1 -20
-8 -34 -11 -31 -6 3 6 1 10 -4 10 -7 0 -11 56 -11 165 0 91 -3 165 -7 164 -5
0 -44 -11 -88 -23z m85 -153 c1 -87 2 -247 3 -355 1 -109 -1 -198 -5 -198 -4
0 -9 12 -11 28 -4 25 -4 25 -6 -5 -1 -28 2 -33 22 -32 12 1 35 -3 50 -10 41
-16 73 -14 120 10 23 12 43 21 45 20 1 0 1 1 0 2 -2 2 3 11 11 21 9 11 17 13
26 6 6 -5 16 -6 21 -2 4 4 2 -2 -6 -12 -23 -29 -110 -66 -158 -66 -24 0 -63 5
-88 11 -38 10 -47 9 -63 -5 -9 -9 -21 -16 -24 -16 -4 0 -7 148 -7 329 0 311
-1 330 -20 353 -10 14 -16 29 -12 33 4 5 1 5 -6 1 -7 -4 -21 -5 -30 -1 -12 5
3 13 48 25 36 9 71 18 78 19 9 1 12 -37 12 -156z m151 -163 c126 -35 163 -249
60 -351 -46 -46 -99 -62 -149 -46 -48 16 -53 40 -50 224 l3 147 45 18 c55 21
48 20 91 8z"/>
<path d="M3005 4320 c-16 -7 -17 -9 -3 -9 9 -1 20 4 23 9 7 11 7 11 -20 0z"/>
<path d="M2980 4054 c0 -103 2 -185 5 -182 3 3 6 79 6 169 1 90 4 166 9 169 4
3 2 11 -6 18 -12 11 -14 -15 -14 -174z"/>
<path d="M3012 4135 c0 -16 2 -22 5 -12 2 9 2 23 0 30 -3 6 -5 -1 -5 -18z"/>
<path d="M3012 4060 c0 -14 2 -19 5 -12 2 6 2 18 0 25 -3 6 -5 1 -5 -13z"/>
<path d="M3020 3999 c0 -5 5 -7 10 -4 6 3 10 8 10 11 0 2 -4 4 -10 4 -5 0 -10
-5 -10 -11z"/>
<path d="M2983 3805 c0 -33 2 -45 4 -27 2 18 2 45 0 60 -2 15 -4 0 -4 -33z"/>
<path d="M2982 3671 c-2 -64 0 -72 13 -61 17 14 20 25 5 15 -5 -3 -11 21 -13
57 l-3 63 -2 -74z"/>
<path d="M1989 4281 c-151 -48 -249 -187 -249 -351 0 -156 82 -277 220 -325
94 -33 276 -29 356 7 23 11 24 16 24 95 0 63 -3 83 -13 83 -8 0 -19 -17 -25
-39 -25 -81 -94 -130 -185 -131 -97 0 -175 52 -220 149 -27 57 -32 79 -35 166
-3 84 0 109 18 158 43 115 109 161 230 161 112 0 151 -28 184 -136 3 -10 13
-18 22 -18 15 0 16 9 10 82 -4 45 -8 84 -10 85 -2 2 -38 10 -80 18 -101 19
-178 18 -247 -4z m261 -12 c28 -6 53 -16 55 -22 7 -23 13 -138 7 -133 -8 9
-33 78 -36 101 -2 11 -9 20 -17 21 -29 2 -34 5 -21 12 15 10 -19 14 -134 16
-73 1 -85 -2 -130 -29 -161 -100 -177 -414 -29 -558 21 -20 33 -37 27 -37 -6
0 -14 5 -17 10 -4 6 -10 8 -14 6 -4 -3 -13 -1 -21 5 -12 7 -12 9 -2 9 9 0 6
10 -10 29 -21 28 -47 44 -33 21 16 -25 -26 -6 -50 23 -15 17 -22 23 -16 11 24
-49 146 -135 170 -119 5 3 25 -2 45 -10 51 -21 148 -19 194 4 49 25 69 49 92
107 l19 49 1 -77 0 -77 -49 -15 c-120 -36 -259 -28 -358 20 -135 65 -200 222
-159 384 30 116 101 201 203 240 56 22 201 27 283 9z m-340 -591 c0 -5 -9 -4
-20 2 -11 6 -18 15 -14 21 6 11 34 -7 34 -23z"/>
<path d="M1884 4195 c-9 -22 1 -29 15 -11 8 10 9 16 1 21 -5 3 -13 -1 -16 -10z"/>
<path d="M1865 4149 c-4 -6 -5 -12 -2 -15 2 -3 7 2 10 11 7 17 1 20 -8 4z"/>
<path d="M1816 4119 c-18 -30 -18 -30 2 -18 12 7 19 16 16 20 -2 4 1 9 8 11 8
3 8 7 2 11 -6 3 -18 -8 -28 -24z"/>
<path d="M1846 4105 c-9 -26 -7 -32 5 -12 6 10 9 21 6 23 -2 3 -7 -2 -11 -11z"/>
<path d="M1826 4048 c-3 -13 -5 -52 -4 -88 1 -65 1 -65 8 20 7 90 6 105 -4 68z"/>
<path d="M1762 3915 c0 -16 2 -22 5 -12 2 9 2 23 0 30 -3 6 -5 -1 -5 -18z"/>
<path d="M1772 3855 c0 -16 2 -22 5 -12 2 9 2 23 0 30 -3 6 -5 -1 -5 -18z"/>
<path d="M1833 3834 c1 -23 5 -40 10 -37 4 2 7 -1 7 -8 0 -7 2 -10 5 -8 2 3
-2 25 -10 49 l-14 45 2 -41z"/>
<path d="M1810 3820 c0 -5 5 -10 11 -10 5 0 7 5 4 10 -3 6 -8 10 -11 10 -2 0
-4 -4 -4 -10z"/>
<path d="M1780 3815 c0 -5 5 -17 10 -25 5 -8 10 -10 10 -5 0 6 -5 17 -10 25
-5 8 -10 11 -10 5z"/>
<path d="M1860 3755 c0 -8 4 -15 10 -15 5 0 7 7 4 15 -4 8 -8 15 -10 15 -2 0
-4 -7 -4 -15z"/>
<path d="M2306 3693 c-6 -14 -5 -15 5 -6 7 7 10 15 7 18 -3 3 -9 -2 -12 -12z"/>
<path d="M2306 3655 c-3 -8 -1 -15 4 -15 6 0 10 7 10 15 0 8 -2 15 -4 15 -2 0
-6 -7 -10 -15z"/>
<path d="M2244 3629 c-17 -19 -16 -19 14 -8 36 12 38 15 18 22 -8 3 -22 -3
-32 -14z"/>
<path d="M7928 4093 c6 -2 18 -2 25 0 6 3 1 5 -13 5 -14 0 -19 -2 -12 -5z"/>
<path d="M2569 4081 c-75 -23 -119 -63 -119 -108 0 -20 5 -33 13 -33 6 0 21
-3 33 -6 18 -5 22 0 27 34 10 62 54 89 118 72 47 -13 60 -34 62 -106 l2 -55
-70 -23 c-87 -28 -132 -51 -169 -85 -39 -36 -48 -65 -36 -112 25 -93 168 -108
257 -27 l21 20 14 -29 c26 -55 99 -66 147 -22 32 30 28 50 -11 42 -52 -10 -58
8 -58 189 0 186 -9 220 -64 243 -37 16 -124 19 -167 6z m173 -22 c36 -19 42
-51 45 -224 4 -188 13 -221 59 -212 29 5 32 -8 5 -23 -45 -24 -121 -1 -121 36
0 26 -20 23 -71 -8 -43 -27 -62 -33 -110 -33 -69 0 -96 20 -106 79 -11 72 38
115 191 167 l81 27 3 52 c6 98 -39 148 -122 137 -46 -6 -86 -46 -86 -84 0 -18
-6 -23 -25 -23 -20 0 -25 5 -25 23 0 56 115 112 210 101 30 -3 63 -10 72 -15z"/>
<path d="M2695 4040 c20 -23 34 -28 16 -6 -9 11 -9 15 1 19 7 3 2 6 -11 6 -23
1 -24 0 -6 -19z"/>
<path d="M2747 4020 c20 -44 23 -47 23 -28 0 9 -9 26 -20 39 l-20 24 17 -35z"/>
<path d="M2486 4012 c-2 -4 -1 -14 4 -22 7 -11 9 -9 7 8 -1 24 -3 26 -11 14z"/>
<path d="M2731 3954 c0 -11 3 -14 6 -6 3 7 2 16 -1 19 -3 4 -6 -2 -5 -13z"/>
<path d="M2758 3940 c-3 -16 -1 -35 4 -42 4 -8 8 4 8 30 0 49 -6 55 -12 12z"/>
<path d="M2761 3864 c0 -11 3 -14 6 -6 3 7 2 16 -1 19 -3 4 -6 -2 -5 -13z"/>
<path d="M2634 3830 c-29 -10 -63 -25 -76 -34 -14 -9 -27 -14 -30 -10 -3 3
-22 -11 -42 -31 -25 -25 -36 -44 -35 -63 2 -26 2 -27 6 -2 6 31 33 71 33 50 1
-9 6 -5 14 9 12 22 13 20 12 -24 -1 -39 3 -50 27 -71 38 -32 91 -32 140 1 l37
26 0 84 c0 97 1 96 -86 65z m74 -67 l-3 -77 -40 -23 c-50 -28 -75 -29 -109 -2
-38 30 -37 90 2 117 24 17 126 60 145 61 4 1 7 -34 5 -76z"/>
<path d="M2731 3824 c0 -11 3 -14 6 -6 3 7 2 16 -1 19 -3 4 -6 -2 -5 -13z"/>
<path d="M2763 3800 c0 -25 2 -35 4 -22 2 12 2 32 0 45 -2 12 -4 2 -4 -23z"/>
<path d="M2732 3775 c0 -16 2 -22 5 -12 2 9 2 23 0 30 -3 6 -5 -1 -5 -18z"/>
<path d="M2761 3724 c0 -11 3 -14 6 -6 3 7 2 16 -1 19 -3 4 -6 -2 -5 -13z"/>
<path d="M2486 3703 c-6 -14 -5 -15 5 -6 7 7 10 15 7 18 -3 3 -9 -2 -12 -12z"/>
<path d="M2760 3681 c0 -6 4 -13 10 -16 6 -3 7 1 4 9 -7 18 -14 21 -14 7z"/>
<path d="M2460 3652 c0 -11 34 -42 46 -42 4 0 -2 7 -14 16 -12 8 -20 20 -17
25 4 5 1 9 -4 9 -6 0 -11 -4 -11 -8z"/>
<path d="M2743 3636 c1 -11 9 -21 17 -23 10 -3 11 -2 4 4 -6 4 -14 15 -17 23
-5 11 -6 9 -4 -4z"/>
<path d="M2565 3610 c-3 -5 -1 -10 4 -10 6 0 11 5 11 10 0 6 -2 10 -4 10 -3 0
-8 -4 -11 -10z"/>
<path d="M3620 4075 c-85 -39 -131 -114 -138 -226 -10 -171 73 -269 230 -269
72 0 134 26 173 72 26 31 33 68 14 68 -6 0 -29 -15 -50 -34 -26 -24 -51 -37
-82 -41 -107 -16 -172 45 -191 178 l-7 47 165 0 166 0 0 38 c-1 57 -33 117
-80 148 -52 35 -145 43 -200 19z m167 -16 c40 -13 79 -58 93 -107 21 -76 29
-72 -156 -72 l-167 0 6 -57 c12 -117 78 -193 168 -193 60 0 87 10 132 50 30
26 34 28 30 10 -8 -30 -71 -79 -118 -91 -49 -14 -132 -6 -174 15 -126 66 -150
283 -43 398 60 64 129 78 229 47z"/>
<path d="M3635 4047 c-11 -8 -24 -16 -30 -17 -25 -6 -35 -13 -49 -34 -12 -19
-12 -23 0 -23 13 0 18 10 16 29 -1 3 5 9 13 12 18 7 19 12 -9 -58 -16 -39 -25
-52 -28 -40 -3 17 -5 16 -10 -4 -3 -12 -2 -20 3 -16 14 8 10 -12 -5 -25 -11
-9 -13 -4 -10 31 2 38 1 40 -8 18 -12 -30 -13 -169 -1 -181 5 -5 6 18 3 51 -5
48 -3 60 8 60 11 0 13 -11 9 -50 -3 -28 -1 -50 4 -50 13 0 49 -61 43 -72 -3
-4 1 -8 9 -8 12 0 8 13 -13 53 -17 31 -29 70 -31 97 -3 75 -3 75 118 72 58 -2
117 -1 131 3 22 5 24 10 19 47 -3 23 -15 54 -27 70 -11 15 -16 28 -11 28 16 0
51 -75 51 -107 0 -21 3 -24 9 -14 6 10 4 27 -5 50 -8 19 -13 36 -11 38 10 9
31 -32 38 -70 l6 -42 2 37 c1 39 -31 88 -72 109 -34 19 -139 22 -162 6z m132
-30 c29 -29 48 -98 30 -109 -7 -4 -61 -8 -120 -8 -107 0 -108 0 -101 22 30 96
68 133 128 125 23 -3 49 -16 63 -30z"/>
<path d="M3534 3715 c-13 -33 70 -105 120 -105 30 0 16 15 -16 16 -17 1 -37 9
-43 17 -7 9 -15 14 -19 10 -4 -4 -9 3 -13 15 -3 12 -10 22 -15 22 -6 0 -8 9
-5 20 6 23 -1 27 -9 5z"/>
<path d="M3611 3657 c2 -1 13 -9 24 -17 19 -14 19 -14 6 3 -7 9 -18 17 -24 17
-6 0 -8 -1 -6 -3z"/>
<path d="M3758 3613 c6 -2 18 -2 25 0 6 3 1 5 -13 5 -14 0 -19 -2 -12 -5z"/>
<path d="M3708 3603 c6 -2 18 -2 25 0 6 3 1 5 -13 5 -14 0 -19 -2 -12 -5z"/>
<path d="M4000 4023 c0 -64 13 -82 29 -40 5 13 16 29 25 36 15 13 184 36 193
27 3 -2 -59 -99 -137 -215 -77 -116 -143 -218 -146 -226 -5 -13 22 -15 194
-15 227 0 212 -7 212 93 0 54 -12 61 -30 16 -20 -48 -47 -59 -159 -66 l-102
-6 72 109 c138 208 219 335 219 343 0 4 -83 7 -185 7 l-185 -1 0 -62z m340 27
c-6 -11 -15 -18 -20 -15 -8 5 -36 -29 -59 -72 -21 -41 -3 -24 24 23 15 25 29
43 32 40 8 -8 -118 -197 -128 -191 -4 3 -11 1 -14 -5 -5 -8 -11 -7 -21 1 -12
10 -13 9 -8 -6 5 -12 4 -16 -4 -11 -6 3 -14 1 -18 -5 -4 -7 -3 -9 4 -5 6 3 14
1 18 -5 5 -8 13 -4 25 12 10 13 19 19 19 13 0 -5 -27 -50 -60 -98 -33 -48 -57
-92 -54 -98 4 -5 59 -8 134 -6 119 2 128 4 124 22 -2 10 3 30 11 45 13 24 14
23 8 -29 -3 -30 -6 -55 -7 -55 -1 0 -83 2 -184 5 l-182 5 135 203 c75 111 139
201 144 198 4 -3 7 5 6 17 -2 21 -6 22 -93 21 -97 -1 -135 -15 -152 -57 -7
-17 -9 -12 -9 26 l-1 47 170 0 c168 0 171 0 160 -20z m-15 -410 c-3 -5 -11
-10 -16 -10 -6 0 -7 5 -4 10 3 6 11 10 16 10 6 0 7 -4 4 -10z"/>
<path d="M4023 4043 c0 -10 4 -10 16 -1 9 7 18 13 20 15 2 1 -5 1 -16 0 -11 0
-20 -7 -20 -14z"/>
<path d="M4285 4050 c-3 -6 1 -7 9 -4 18 7 21 14 7 14 -6 0 -13 -4 -16 -10z"/>
<path d="M4233 3963 c-7 -2 -13 -14 -13 -24 0 -11 -4 -18 -9 -15 -5 3 -18 -10
-30 -29 -11 -19 -18 -35 -16 -35 3 0 14 14 24 31 11 17 22 26 25 20 4 -6 -1
-22 -10 -36 -9 -14 -14 -25 -11 -25 5 0 57 77 57 85 0 4 -5 3 -11 -1 -8 -4 -8
0 0 15 7 11 10 21 9 20 -2 0 -9 -3 -15 -6z"/>
<path d="M4094 3765 c-9 -14 -15 -27 -13 -30 3 -2 12 10 21 26 21 36 15 39 -8
4z"/>
<path d="M4121 3753 c-12 -16 -27 -39 -32 -52 -7 -18 -12 -21 -23 -12 -11 9
-18 7 -30 -11 -23 -33 -20 -46 5 -19 12 12 23 20 26 17 7 -7 -33 -44 -54 -49
-10 -3 -1 -5 20 -6 23 -1 36 3 32 9 -3 6 3 23 14 39 12 16 21 33 21 39 0 5 7
15 16 22 15 13 38 50 31 50 -2 0 -13 -12 -26 -27z"/>
<path d="M4566 4075 c-68 -24 -91 -47 -94 -93 -3 -39 -1 -42 22 -42 14 0 29
-1 33 -2 4 -2 10 13 14 32 16 76 97 104 150 51 25 -25 29 -37 29 -84 l0 -55
-67 -23 c-152 -49 -213 -99 -213 -171 0 -32 7 -47 35 -75 34 -34 38 -35 95
-31 44 3 72 12 109 36 37 22 51 27 51 17 0 -51 104 -75 148 -35 34 32 29 50
-13 43 -44 -7 -45 -4 -48 204 -2 146 -4 164 -23 190 -11 15 -32 34 -45 40 -32
17 -134 16 -183 -2z m203 -30 c25 -25 26 -29 32 -203 4 -97 9 -188 12 -202 3
-14 6 -28 6 -32 1 -5 6 -8 12 -8 8 0 8 4 1 13 -9 10 -4 13 25 13 l35 0 -22
-18 c-50 -40 -136 -8 -126 47 3 15 1 23 -5 20 -5 -4 -6 -11 -3 -17 4 -6 2 -8
-4 -4 -6 3 -34 -8 -63 -26 -69 -44 -145 -47 -184 -7 -79 79 -15 166 165 224
65 20 78 31 81 65 5 64 -2 92 -30 121 -36 36 -95 40 -134 9 -14 -11 -27 -17
-30 -13 -2 5 -2 3 -1 -4 2 -6 -2 -26 -9 -43 -15 -39 -42 -36 -42 4 0 81 217
128 284 61z"/>
<path d="M4712 4051 c-11 -7 -11 -9 0 -14 9 -3 15 1 15 9 0 8 -1 14 -1 14 -1
0 -7 -4 -14 -9z"/>
<path d="M4750 4044 c0 -5 7 -18 15 -28 12 -16 15 -17 15 -4 0 8 -7 21 -15 28
-8 7 -15 9 -15 4z"/>
<path d="M4500 4015 c0 -5 5 -17 10 -25 5 -8 10 -10 10 -5 0 6 -5 17 -10 25
-5 8 -10 11 -10 5z"/>
<path d="M4739 3996 c5 -11 14 -22 22 -24 11 -3 11 -2 1 6 -7 5 -10 15 -7 24
4 9 0 15 -9 15 -10 0 -12 -6 -7 -21z"/>
<path d="M4490 3981 c0 -6 4 -13 10 -16 6 -3 7 1 4 9 -7 18 -14 21 -14 7z"/>
<path d="M4782 3960 c0 -19 2 -27 5 -17 2 9 2 25 0 35 -3 9 -5 1 -5 -18z"/>
<path d="M4753 3903 c5 -45 -9 -68 -36 -57 -8 3 -44 -6 -79 -21 -34 -15 -68
-27 -75 -27 -7 -1 -12 -4 -11 -7 2 -18 -3 -24 -10 -14 -6 9 -15 6 -36 -10 -26
-21 -26 -23 -7 -23 12 0 21 6 21 13 0 7 4 13 9 13 5 0 7 -17 4 -39 -3 -21 0
-48 6 -60 7 -11 9 -21 7 -21 -3 0 -12 13 -21 30 -16 31 -55 59 -55 40 0 -5 6
-10 13 -10 8 0 20 -12 28 -27 18 -36 35 -46 86 -51 52 -4 120 28 133 64 6 14
10 50 10 80 0 34 5 61 14 69 14 15 14 81 0 94 -4 3 -4 -13 -1 -36z m-35 -140
l-3 -78 -45 -23 c-51 -26 -85 -23 -112 10 -25 29 -22 70 6 97 21 19 127 70
149 71 4 0 7 -35 5 -77z"/>
<path d="M4781 3904 c0 -11 3 -14 6 -6 3 7 2 16 -1 19 -3 4 -6 -2 -5 -13z"/>
<path d="M4751 3814 c0 -11 3 -14 6 -6 3 7 2 16 -1 19 -3 4 -6 -2 -5 -13z"/>
<path d="M4778 3749 c-2 -22 0 -43 4 -45 4 -3 8 15 8 40 0 57 -7 60 -12 5z"/>
<path d="M4750 3740 c0 -22 2 -40 4 -40 2 0 6 18 8 40 2 22 0 40 -4 40 -5 0
-8 -18 -8 -40z"/>
<path d="M4480 3636 c0 -3 9 -10 20 -16 11 -6 20 -8 20 -6 0 3 -9 10 -20 16
-11 6 -20 8 -20 6z"/>
<path d="M4583 3613 c9 -2 23 -2 30 0 6 3 -1 5 -18 5 -16 0 -22 -2 -12 -5z"/>
<path d="M5047 4076 c-70 -26 -107 -76 -107 -145 0 -62 40 -101 145 -140 115
-44 145 -92 90 -146 -19 -20 -34 -25 -74 -25 -41 0 -56 5 -84 30 -19 16 -38
44 -43 61 -5 18 -15 34 -22 37 -15 5 -17 -84 -3 -120 19 -50 174 -66 246 -25
60 34 88 81 82 140 -6 65 -41 100 -135 135 -86 31 -122 60 -122 97 0 39 41 75
87 75 52 0 85 -19 105 -60 10 -19 23 -35 30 -35 17 0 11 96 -7 114 -19 20
-141 25 -188 7z m144 -6 c39 -11 49 -30 48 -85 l-1 -30 -8 29 c-5 15 -17 37
-27 49 -17 20 -17 20 0 14 10 -4 16 -3 13 1 -7 12 -144 14 -166 2 -34 -18 -51
-63 -39 -99 12 -34 45 -55 143 -91 79 -30 106 -61 106 -122 0 -50 -22 -108
-41 -108 -8 0 -7 6 2 18 11 15 11 15 -1 4 -8 -7 -15 -18 -15 -24 0 -29 -118
-47 -185 -28 -52 15 -57 20 -63 80 -5 47 -5 51 5 25 6 -16 21 -42 34 -56 14
-14 21 -29 17 -34 -5 -4 -3 -5 3 -2 6 3 28 1 49 -4 107 -30 191 73 118 143
-16 15 -58 38 -95 52 -90 33 -115 51 -129 93 -37 114 94 211 232 173z"/>
<path d="M4999 4023 c-13 -16 -12 -17 4 -4 9 7 17 15 17 17 0 8 -8 3 -21 -13z"/>
<path d="M4977 3986 c-9 -24 -9 -38 1 -32 4 2 13 -8 20 -22 6 -15 25 -36 42
-46 24 -14 29 -21 20 -31 -15 -18 -40 -8 -33 13 4 15 3 15 -6 2 -9 -13 -12
-12 -25 5 -9 11 -16 24 -16 29 0 5 -3 7 -6 4 -19 -20 49 -74 116 -92 24 -7 24
-6 -2 9 -16 9 -28 18 -28 21 0 3 5 2 10 -1 6 -4 16 -2 23 3 8 7 24 5 50 -5 29
-12 35 -18 27 -29 -7 -7 -19 -10 -28 -7 -14 4 -15 3 -2 -6 11 -7 19 -6 31 5
21 19 54 5 64 -27 4 -11 9 -18 12 -16 2 3 0 15 -7 26 -12 23 -60 50 -143 81
-63 24 -92 51 -104 100 -7 27 -11 31 -16 16z"/>
<path d="M5195 3759 c17 -19 32 -31 33 -27 2 4 8 6 13 2 5 -3 9 -1 9 4 0 10
-19 21 -31 18 -4 0 -17 8 -30 19 -17 14 -15 9 6 -16z"/>
<path d="M5241 3704 c0 -11 3 -14 6 -6 3 7 2 16 -1 19 -3 4 -6 -2 -5 -13z"/>
<path d="M4970 3642 c0 -12 19 -26 26 -19 2 2 -2 10 -11 17 -9 8 -15 8 -15 2z"/>
<path d="M5775 4079 c-11 -16 -1 -19 13 -3 7 8 8 14 3 14 -5 0 -13 -5 -16 -11z"/>
<path d="M3182 4050 c14 -5 41 -4 60 0 27 6 22 7 -27 7 -43 0 -53 -2 -33 -7z"/>
<path d="M6475 4020 c10 -11 20 -20 23 -20 3 0 -3 9 -13 20 -10 11 -20 20 -23
20 -3 0 3 -9 13 -20z"/>
<path d="M3300 3969 c0 -5 5 -7 10 -4 6 3 10 8 10 11 0 2 -4 4 -10 4 -5 0 -10
-5 -10 -11z"/>
<path d="M6410 3945 c13 -14 26 -25 28 -25 3 0 -5 11 -18 25 -13 14 -26 25
-28 25 -3 0 5 -11 18 -25z"/>
<path d="M3372 3930 c0 -14 2 -19 5 -12 2 6 2 18 0 25 -3 6 -5 1 -5 -13z"/>
<path d="M3321 3925 c1 -19 18 -51 18 -35 0 8 -4 22 -9 30 -5 8 -9 11 -9 5z"/>
<path d="M7759 3893 c-13 -16 -12 -17 4 -4 9 7 17 15 17 17 0 8 -8 3 -21 -13z"/>
<path d="M6456 3877 c3 -10 9 -15 12 -12 3 3 0 11 -7 18 -10 9 -11 8 -5 -6z"/>
<path d="M3371 3804 c0 -11 3 -14 6 -6 3 7 2 16 -1 19 -3 4 -6 -2 -5 -13z"/>
<path d="M7584 3788 l-19 -23 23 19 c12 11 22 21 22 23 0 8 -8 2 -26 -19z"/>
<path d="M7529 3733 l-24 -28 28 24 c15 14 27 26 27 28 0 8 -8 1 -31 -24z"/>
<path d="M6695 3710 c21 -22 41 -40 44 -40 3 0 -13 18 -34 40 -21 22 -41 40
-44 40 -3 0 13 -18 34 -40z"/>
<path d="M6600 3665 c30 -30 57 -55 59 -55 3 0 -19 25 -49 55 -30 30 -57 55
-59 55 -3 0 19 -25 49 -55z"/>
<path d="M7629 3703 c-13 -16 -12 -17 4 -4 16 13 21 21 13 21 -2 0 -10 -8 -17
-17z"/>
<path d="M6148 3683 c12 -2 30 -2 40 0 9 3 -1 5 -23 4 -22 0 -30 -2 -17 -4z"/>
<path d="M7564 3638 l-19 -23 23 19 c12 11 22 21 22 23 0 8 -8 2 -26 -19z"/>
<path d="M3745 3244 c-9 -14 -15 -27 -13 -29 4 -5 30 16 47 38 11 14 11 17 -2
17 -8 0 -22 -12 -32 -26z"/>
<path d="M1810 3093 l0 -103 54 4 c61 4 80 12 70 28 -4 7 -2 8 4 4 16 -10 32
26 32 72 0 62 -25 85 -99 92 l-61 6 0 -103z m100 71 c8 -3 15 -4 16 -2 2 7 34
-25 34 -35 0 -6 -7 -2 -16 9 -8 10 -12 13 -9 6 4 -8 7 -32 7 -55 -1 -31 2 -38
9 -27 7 10 9 11 7 2 -2 -8 -6 -12 -9 -10 -8 4 -40 -23 -35 -31 2 -3 -14 -7
-35 -8 l-39 -3 0 84 0 83 28 -4 c15 -3 34 -7 42 -9z"/>
<path d="M2720 3095 c0 -91 2 -105 16 -105 15 0 16 10 11 78 -3 42 -9 88 -12
102 -6 24 -6 24 9 6 8 -10 13 -22 10 -27 -7 -11 48 -119 61 -119 12 0 65 102
65 125 0 7 4 16 9 19 5 4 5 -10 0 -32 -5 -20 -9 -63 -9 -94 0 -45 3 -58 15
-58 12 0 15 18 15 105 0 77 -3 105 -12 105 -13 0 -80 -111 -77 -127 1 -4 1
-15 0 -23 -1 -13 -3 -13 -10 0 -6 8 -8 17 -5 22 8 13 -56 128 -71 128 -12 0
-15 -19 -15 -105z"/>
<path d="M3142 3183 c-28 -56 -74 -185 -67 -191 11 -11 36 30 30 52 -3 12 -2
15 1 9 7 -15 104 -18 104 -3 0 6 -20 10 -45 10 -25 0 -45 2 -45 5 0 4 7 19 15
35 8 16 13 35 10 42 -6 17 12 45 22 34 4 -5 3 -11 -3 -13 -8 -2 -4 -19 9 -48
11 -24 24 -42 28 -40 9 6 21 -24 13 -36 -9 -15 6 -49 22 -49 18 0 17 5 -30
121 -35 87 -49 102 -64 72z"/>
<path d="M3425 3190 c-38 -3 -65 -8 -60 -11 15 -9 134 -8 140 1 8 14 -6 15
-80 10z"/>
<path d="M3674 3166 c-97 -97 36 -238 138 -147 28 25 33 36 33 76 0 40 -5 51
-33 76 -46 42 -93 40 -138 -5z m115 -10 c32 -29 37 -73 12 -107 -22 -29 -16
-39 9 -16 12 10 12 9 2 -4 -13 -18 -69 -19 -106 -4 -15 7 -17 5 -11 -6 5 -8
-1 -6 -13 4 -16 15 -19 26 -15 55 3 21 13 48 21 62 9 14 16 28 15 31 -4 14 68
2 86 -15z m41 -30 c0 -12 -5 -7 -19 24 -11 24 -11 24 3 6 9 -11 16 -24 16 -30z
m-173 -43 c-3 -10 -5 -4 -5 12 0 17 2 24 5 18 2 -7 2 -21 0 -30z m180 5 c-3
-8 -6 -5 -6 6 -1 11 2 17 5 13 3 -3 4 -12 1 -19z"/>
<path d="M3670 3051 c0 -5 5 -13 10 -16 6 -3 10 -2 10 4 0 5 -4 13 -10 16 -5
3 -10 2 -10 -4z"/>
<path d="M4294 3166 c-26 -26 -34 -42 -34 -71 0 -49 53 -105 100 -105 39 0 73
17 64 32 -4 7 -3 8 5 4 7 -5 17 6 27 30 14 32 14 42 1 73 -7 20 -19 35 -26 33
-7 -1 -10 2 -6 7 8 14 -28 31 -65 31 -23 0 -42 -10 -66 -34z m110 2 c-5 -7 15
-22 31 -23 11 -1 11 -13 1 -65 -6 -27 -5 -32 4 -20 10 13 11 13 7 0 -2 -8 -8
-15 -13 -15 -5 0 -20 -8 -34 -17 -24 -16 -83 -18 -97 -4 -4 3 -8 25 -10 48 -3
31 1 49 17 70 11 15 16 28 11 28 -5 0 -17 -10 -25 -22 -9 -12 -16 -18 -16 -14
0 26 32 43 79 42 27 0 47 -4 45 -8z m-122 -82 c2 -19 0 -32 -4 -30 -8 5 -12
64 -4 64 2 0 6 -15 8 -34z"/>
<path d="M4663 3181 c-41 -26 -58 -80 -39 -126 30 -70 114 -88 167 -36 17 17
29 40 29 55 0 24 -3 26 -45 26 -33 0 -45 -4 -45 -15 0 -11 10 -13 43 -10 26 3
37 1 28 -4 -7 -5 -10 -14 -7 -20 4 -6 4 -10 -1 -9 -4 1 -20 -5 -34 -15 -26
-17 -82 -18 -97 -2 -4 5 0 4 8 0 11 -6 10 -3 -2 12 -23 26 -23 85 0 113 13 16
31 23 60 25 23 1 39 -1 37 -5 -7 -11 22 -33 36 -28 7 2 4 12 -8 26 -26 33 -88
39 -130 13z m17 -4 c0 -2 -10 -12 -22 -23 l-23 -19 19 23 c18 21 26 27 26 19z"/>
<path d="M5031 3178 c-5 -13 -23 -56 -40 -97 -17 -41 -31 -78 -31 -82 0 -19
21 -8 32 16 10 22 18 25 60 25 30 0 47 4 43 10 -9 14 -78 13 -93 -2 -9 -9 -12
-9 -12 0 0 7 4 12 8 12 13 0 45 77 38 89 -4 6 -2 11 4 11 6 0 8 5 5 10 -3 6
-2 10 3 10 6 0 13 -7 16 -16 4 -9 2 -13 -5 -8 -8 4 -9 -1 -4 -17 11 -35 33
-77 45 -84 6 -4 8 -11 5 -16 -10 -15 5 -49 21 -49 18 0 17 5 -30 121 -19 46
-39 85 -45 87 -6 2 -15 -7 -20 -20z"/>
<path d="M2142 3093 l3 -97 57 0 c32 -1 58 3 58 9 0 6 -20 9 -47 7 l-48 -4 0
84 0 83 48 -3 c29 -3 47 0 47 7 0 7 -23 11 -61 11 l-60 0 3 -97z"/>
<path d="M2420 3090 c0 -82 3 -100 15 -100 11 0 15 12 15 44 0 38 3 44 23 48
13 3 24 0 24 -6 0 -27 33 -86 47 -86 20 0 20 3 -4 50 -19 37 -19 40 -3 68 16
28 16 31 0 56 -15 22 -25 26 -67 26 l-50 0 0 -100z m89 66 c12 -9 13 -8 8 7
-4 10 -3 16 2 13 5 -3 8 -20 6 -38 -2 -27 -7 -32 -31 -35 -16 -3 -33 -8 -38
-14 -6 -5 -14 -9 -20 -9 -6 0 -5 5 2 12 16 16 15 75 0 81 -7 3 3 3 22 0 19 -3
41 -11 49 -17z m-72 -108 c-3 -8 -6 -5 -6 6 -1 11 2 17 5 13 3 -3 4 -12 1 -19z"/>
<path d="M4010 3092 l0 -97 60 0 c36 0 60 4 60 11 0 7 -21 9 -57 7 -32 -1 -52
0 -45 3 8 4 12 32 12 90 0 68 -3 84 -15 84 -12 0 -15 -18 -15 -98z"/>
<path d="M3420 3080 c0 -73 3 -90 15 -90 12 0 15 17 15 90 0 73 -3 90 -15 90
-12 0 -15 -17 -15 -90z m17 -32 c-2 -24 -4 -7 -4 37 0 44 2 63 4 43 2 -21 2
-57 0 -80z"/>
<path d="M2170 3100 c0 -5 16 -10 35 -10 19 0 35 5 35 10 0 6 -16 10 -35 10
-19 0 -35 -4 -35 -10z"/>
</g>
</svg>
